<svg xmlns="http://www.w3.org/2000/svg" width="207" height="132" viewBox="0 0 207 132" fill="none">
<path d="M2.48059 128.188C1.65216 128.188 0.98059 128.86 0.980591 129.688C0.980592 130.516 1.65217 131.188 2.48059 131.188L2.48059 128.188ZM196.67 1.28993C196.084 0.704139 195.134 0.70414 194.548 1.28993L185.002 10.8359C184.417 11.4217 184.417 12.3714 185.002 12.9572C185.588 13.543 186.538 13.543 187.124 12.9572L195.609 4.47191L204.094 12.9572C204.68 13.543 205.63 13.543 206.216 12.9572C206.801 12.3714 206.801 11.4216 206.216 10.8359L196.67 1.28993ZM195.609 105.688H194.109H195.609ZM2.48059 131.188L171.609 131.188V128.188L2.48059 128.188L2.48059 131.188ZM197.109 105.688L197.109 2.35059L194.109 2.35059L194.109 105.688L197.109 105.688ZM171.609 131.188C185.692 131.188 197.109 119.771 197.109 105.688L194.109 105.688C194.109 118.114 184.035 128.188 171.609 128.188V131.188Z" fill="#EF6820"/>
</svg>