<svg xmlns="http://www.w3.org/2000/svg" width="152" height="23" viewBox="0 0 152 23" fill="none">
<path d="M150.347 12.9189C151.176 12.9189 151.847 12.2474 151.847 11.4189C151.847 10.5905 151.176 9.91895 150.347 9.91895V12.9189ZM1.11869 10.3583C0.532905 10.9441 0.532905 11.8938 1.11869 12.4796L10.6646 22.0255C11.2504 22.6113 12.2002 22.6113 12.786 22.0255C13.3717 21.4398 13.3717 20.49 12.786 19.9042L4.30067 11.4189L12.786 2.93366C13.3717 2.34788 13.3717 1.39813 12.786 0.812344C12.2002 0.226557 11.2504 0.226557 10.6646 0.812344L1.11869 10.3583ZM150.347 9.91895H2.17935V12.9189H150.347V9.91895Z" fill="#29ABE2"/>
</svg>