<svg xmlns="http://www.w3.org/2000/svg" width="261" height="86" viewBox="0 0 261 86" fill="none">
<path d="M0.178772 84.3573C0.178772 85.1857 0.850345 85.8573 1.67877 85.8573C2.5072 85.8573 3.17877 85.1857 3.17877 84.3573H0.178772ZM248.379 85.418C248.965 86.0037 249.915 86.0037 250.5 85.418L260.046 75.872C260.632 75.2862 260.632 74.3365 260.046 73.7507C259.461 73.1649 258.511 73.1649 257.925 73.7507L249.44 82.236L240.954 73.7507C240.369 73.1649 239.419 73.1649 238.833 73.7507C238.247 74.3365 238.247 75.2862 238.833 75.872L248.379 85.418ZM3.17877 84.3573V25.6739H0.178772V84.3573H3.17877ZM25.6788 3.17383H225.44V0.173828H25.6788V3.17383ZM247.94 25.6738V84.3573H250.94V25.6738H247.94ZM225.44 3.17383C237.866 3.17383 247.94 13.2474 247.94 25.6738H250.94C250.94 11.5906 239.523 0.173828 225.44 0.173828V3.17383ZM3.17877 25.6739C3.17877 13.2474 13.2524 3.17383 25.6788 3.17383V0.173828C11.5955 0.173828 0.178772 11.5906 0.178772 25.6739H3.17877Z" fill="#29ABE2"/>
</svg>