<svg xmlns="http://www.w3.org/2000/svg" width="115" height="23" viewBox="0 0 115 23" fill="none">
<path d="M1.58984 9.85938C0.761417 9.85938 0.0898438 10.5309 0.0898438 11.3594C0.0898438 12.1878 0.761417 12.8594 1.58984 12.8594V9.85938ZM113.836 12.42C114.422 11.8342 114.422 10.8845 113.836 10.2987L104.29 0.752773C103.704 0.166986 102.755 0.166986 102.169 0.752773C101.583 1.33856 101.583 2.28831 102.169 2.87409L110.654 11.3594L102.169 19.8447C101.583 20.4304 101.583 21.3802 102.169 21.966C102.755 22.5518 103.704 22.5518 104.29 21.966L113.836 12.42ZM1.58984 12.8594H112.775V9.85938H1.58984V12.8594Z" fill="#29ABE2"/>
</svg>