<svg xmlns="http://www.w3.org/2000/svg" width="23" height="113" viewBox="0 0 23 113" fill="none">
<path d="M10.0952 111.031C10.0952 111.86 10.7667 112.531 11.5952 112.531C12.4236 112.531 13.0952 111.86 13.0952 111.031H10.0952ZM12.6558 0.708871C12.07 0.123085 11.1203 0.123085 10.5345 0.708871L0.988552 10.2548C0.402765 10.8406 0.402765 11.7903 0.988552 12.3761C1.57434 12.9619 2.52409 12.9619 3.10987 12.3761L11.5952 3.89085L20.0804 12.3761C20.6662 12.9619 21.616 12.9619 22.2018 12.3761C22.7875 11.7903 22.7875 10.8406 22.2018 10.2548L12.6558 0.708871ZM13.0952 111.031V1.76953H10.0952V111.031H13.0952Z" fill="#29ABE2"/>
</svg>