<svg xmlns="http://www.w3.org/2000/svg" width="158" height="23" viewBox="0 0 158 23" fill="none">
<path d="M2.17938 9.56934C1.35096 9.56934 0.679382 10.2409 0.679382 11.0693C0.679382 11.8978 1.35096 12.5693 2.17938 12.5693V9.56934ZM156.616 12.13C157.201 11.5442 157.201 10.5945 156.616 10.0087L147.07 0.462734C146.484 -0.123053 145.534 -0.123053 144.948 0.462734C144.363 1.04852 144.363 1.99827 144.948 2.58405L153.434 11.0693L144.948 19.5546C144.363 20.1404 144.363 21.0902 144.948 21.6759C145.534 22.2617 146.484 22.2617 147.07 21.6759L156.616 12.13ZM2.17938 12.5693H155.555V9.56934H2.17938V12.5693Z" fill="#EF6820"/>
</svg>