<svg xmlns="http://www.w3.org/2000/svg" width="261" height="93" viewBox="0 0 261 93" fill="none">
<path d="M260.938 1.63525C260.938 0.806827 260.266 0.135254 259.438 0.135254C258.609 0.135254 257.938 0.806827 257.938 1.63525H260.938ZM12.3815 8.49971C11.7957 7.91392 10.8459 7.91392 10.2601 8.49971L0.714199 18.0456C0.128412 18.6314 0.128412 19.5812 0.714199 20.167C1.29999 20.7528 2.24973 20.7528 2.83552 20.167L11.3208 11.6817L19.8061 20.167C20.3919 20.7528 21.3416 20.7528 21.9274 20.167C22.5132 19.5812 22.5132 18.6314 21.9274 18.0456L12.3815 8.49971ZM257.938 1.63525V67.1111H260.938V1.63525H257.938ZM235.438 89.6111H35.3208V92.6111H235.438V89.6111ZM12.8208 67.1111V9.56037H9.8208V67.1111H12.8208ZM35.3208 89.6111C22.8944 89.6111 12.8208 79.5375 12.8208 67.1111H9.8208C9.8208 81.1943 21.2375 92.6111 35.3208 92.6111V89.6111ZM257.938 67.1111C257.938 79.5375 247.864 89.6111 235.438 89.6111V92.6111C249.521 92.6111 260.938 81.1943 260.938 67.1111H257.938Z" fill="#EF6820"/>
</svg>