<svg xmlns="http://www.w3.org/2000/svg" width="114" height="23" viewBox="0 0 114 23" fill="none">
<path d="M112.01 13.2505C112.838 13.2505 113.51 12.5789 113.51 11.7505C113.51 10.9221 112.838 10.2505 112.01 10.2505V13.2505ZM1.00184 10.6898C0.416053 11.2756 0.416053 12.2254 1.00184 12.8111L10.5478 22.3571C11.1336 22.9429 12.0833 22.9429 12.6691 22.3571C13.2549 21.7713 13.2549 20.8216 12.6691 20.2358L4.18382 11.7505L12.6691 3.26521C13.2549 2.67942 13.2549 1.72967 12.6691 1.14389C12.0833 0.5581 11.1336 0.5581 10.5478 1.14389L1.00184 10.6898ZM112.01 10.2505H2.0625V13.2505H112.01V10.2505Z" fill="#EF6820"/>
</svg>