<svg xmlns="http://www.w3.org/2000/svg" width="239" height="96" viewBox="0 0 239 96" fill="none">
<path d="M237.419 3.92773C238.247 3.92773 238.919 3.25616 238.919 2.42773C238.919 1.59931 238.247 0.927734 237.419 0.927734V3.92773ZM10.7381 94.7198C11.3239 95.3055 12.2736 95.3055 12.8594 94.7198L22.4054 85.1738C22.9912 84.588 22.9912 83.6383 22.4054 83.0525C21.8196 82.4667 20.8698 82.4667 20.2841 83.0525L11.7988 91.5378L3.31349 83.0525C2.7277 82.4667 1.77796 82.4667 1.19217 83.0525C0.606382 83.6383 0.606382 84.588 1.19217 85.1738L10.7381 94.7198ZM237.419 0.927734H35.7988V3.92773H237.419V0.927734ZM10.2988 26.4277L10.2988 93.6591H13.2988L13.2988 26.4277H10.2988ZM35.7988 0.927734C21.7155 0.927734 10.2988 12.3445 10.2988 26.4277H13.2988C13.2988 14.0013 23.3724 3.92773 35.7988 3.92773V0.927734Z" fill="#29ABE2"/>
</svg>