<svg xmlns="http://www.w3.org/2000/svg" width="23" height="117" viewBox="0 0 23 117" fill="none">
<path d="M12.6668 1.99121C12.6668 1.16278 11.9952 0.491211 11.1668 0.491211C10.3383 0.491211 9.66676 1.16278 9.66676 1.99121H12.6668ZM10.1061 115.888C10.6919 116.474 11.6416 116.474 12.2274 115.888L21.7734 106.342C22.3592 105.756 22.3592 104.807 21.7734 104.221C21.1876 103.635 20.2378 103.635 19.652 104.221L11.1668 112.706L2.68148 104.221C2.0957 103.635 1.14595 103.635 0.560162 104.221C-0.0256252 104.807 -0.0256252 105.756 0.560162 106.342L10.1061 115.888ZM9.66676 1.99121V114.827H12.6668V1.99121H9.66676Z" fill="#EF6820"/>
</svg>