<svg xmlns="http://www.w3.org/2000/svg" width="172" height="23" viewBox="0 0 172 23" fill="none">
<path d="M2.16934 9.56934C1.34091 9.56934 0.669342 10.2409 0.669342 11.0693C0.669342 11.8978 1.34091 12.5693 2.16934 12.5693V9.56934ZM171.074 12.13C171.66 11.5442 171.66 10.5945 171.074 10.0087L161.528 0.462734C160.942 -0.123053 159.992 -0.123053 159.407 0.462734C158.821 1.04852 158.821 1.99827 159.407 2.58405L167.892 11.0693L159.407 19.5546C158.821 20.1404 158.821 21.0902 159.407 21.6759C159.992 22.2617 160.942 22.2617 161.528 21.6759L171.074 12.13ZM2.16934 12.5693H170.013V9.56934H2.16934V12.5693Z" fill="#EF6820"/>
</svg>