<svg xmlns="http://www.w3.org/2000/svg" width="130" height="47" viewBox="0 0 130 47" fill="none">
<path fill-rule="evenodd" clip-rule="evenodd" d="M29.9699 0.27478H0.179565V32.8023H29.9998V0.27478H29.9699ZM18.6938 0.502249H19.8902V1.80205H18.6938V0.502249ZM18.6938 2.02951H19.8902V3.32931H18.6938V2.02951ZM17.2881 0.502249H18.4845V1.80205H17.2881V0.502249ZM17.2881 2.02951H18.4845V3.32931H17.2881V2.02951ZM15.8823 0.502249H17.0787V1.80205H15.8823V0.502249ZM15.8823 2.02951H17.0787V3.32931H15.8823V2.02951ZM15.8823 11.2581H17.0787V12.5579H15.8823V11.2581ZM15.8823 12.7854H17.0787V14.0852H15.8823V12.7854ZM13.0708 0.502249H14.2672V1.80205H13.0708V0.502249ZM13.0708 2.02951H14.2672V3.32931H13.0708V2.02951ZM13.0708 11.2581H14.2672V12.5579H13.0708V11.2581ZM10.2592 0.502249H11.4556V1.80205H10.2592V0.502249ZM1.58533 32.5423H0.388934V31.2425H1.58533V32.5423ZM1.58533 31.0151H0.388934V29.7153H1.58533V31.0151ZM1.58533 29.4878H0.388934V28.188H1.58533V29.4878ZM1.58533 27.928H0.388934V26.6282H1.58533V27.928ZM1.58533 26.4008H0.388934V25.101H1.58533V26.4008ZM1.58533 24.8735H0.388934V23.5737H1.58533V24.8735ZM1.58533 23.3462H0.388934V22.0464H1.58533V23.3462ZM1.58533 21.7865H0.388934V20.4867H1.58533V21.7865ZM1.58533 20.2592H0.388934V18.9594H1.58533V20.2592ZM1.58533 18.732H0.388934V17.4322H1.58533V18.732ZM1.58533 17.1722H0.388934V15.8724H1.58533V17.1722ZM1.58533 15.6449H0.388934V14.3451H1.58533V15.6449ZM1.58533 14.1177H0.388934V12.8179H1.58533V14.1177ZM1.58533 12.5579H0.388934V11.2581H1.58533V12.5579ZM1.58533 11.0306H0.388934V9.73083H1.58533V11.0306ZM1.58533 9.50337H0.388934V8.20357H1.58533V9.50337ZM1.58533 7.94361H0.388934V6.64381H1.58533V7.94361ZM1.58533 6.41634H0.388934V5.11654H1.58533V6.41634ZM1.58533 4.88908H0.388934V3.58928H1.58533V4.88908ZM1.58533 3.32931H0.388934V2.02951H1.58533V3.32931ZM1.58533 1.80205H0.388934V0.502249H1.58533V1.80205ZM2.9911 32.5423H1.79471V31.2425H2.9911V32.5423ZM2.9911 31.0151H1.79471V29.7153H2.9911V31.0151ZM2.9911 29.4878H1.79471V28.188H2.9911V29.4878ZM2.9911 27.928H1.79471V26.6282H2.9911V27.928ZM2.9911 26.4008H1.79471V25.101H2.9911V26.4008ZM2.9911 24.8735H1.79471V23.5737H2.9911V24.8735ZM2.9911 23.3462H1.79471V22.0464H2.9911V23.3462ZM2.9911 21.7865H1.79471V20.4867H2.9911V21.7865ZM2.9911 20.2592H1.79471V18.9594H2.9911V20.2592ZM2.9911 18.732H1.79471V17.4322H2.9911V18.732ZM2.9911 17.1722H1.79471V15.8724H2.9911V17.1722ZM2.9911 15.6449H1.79471V14.3451H2.9911V15.6449ZM2.9911 14.1177H1.79471V12.8179H2.9911V14.1177ZM2.9911 12.5579H1.79471V11.2581H2.9911V12.5579ZM2.9911 11.0306H1.79471V9.73083H2.9911V11.0306ZM2.9911 9.50337H1.79471V8.20357H2.9911V9.50337ZM2.9911 7.94361H1.79471V6.64381H2.9911V7.94361ZM2.9911 6.41634H1.79471V5.11654H2.9911V6.41634ZM2.9911 4.88908H1.79471V3.58928H2.9911V4.88908ZM2.9911 3.32931H1.79471V2.02951H2.9911V3.32931ZM2.9911 1.80205H1.79471V0.502249H2.9911V1.80205ZM4.39687 32.5423H3.20047V31.2425H4.39687V32.5423ZM4.39687 31.0151H3.20047V29.7153H4.39687V31.0151ZM4.39687 29.4878H3.20047V28.188H4.39687V29.4878ZM4.39687 27.928H3.20047V26.6282H4.39687V27.928ZM4.39687 26.4008H3.20047V25.101H4.39687V26.4008ZM4.39687 24.8735H3.20047V23.5737H4.39687V24.8735ZM4.39687 23.3462H3.20047V22.0464H4.39687V23.3462ZM4.39687 21.7865H3.20047V20.4867H4.39687V21.7865ZM4.39687 20.2592H3.20047V18.9594H4.39687V20.2592ZM4.39687 18.732H3.20047V17.4322H4.39687V18.732ZM4.39687 17.1722H3.20047V15.8724H4.39687V17.1722ZM4.39687 15.6449H3.20047V14.3451H4.39687V15.6449ZM4.39687 14.1177H3.20047V12.8179H4.39687V14.1177ZM4.39687 12.5579H3.20047V11.2581H4.39687V12.5579ZM4.39687 11.0306H3.20047V9.73083H4.39687V11.0306ZM4.39687 9.50337H3.20047V8.20357H4.39687V9.50337ZM4.39687 7.94361H3.20047V6.64381H4.39687V7.94361ZM4.39687 6.41634H3.20047V5.11654H4.39687V6.41634ZM4.39687 4.88908H3.20047V3.58928H4.39687V4.88908ZM4.39687 3.32931H3.20047V2.02951H4.39687V3.32931ZM4.39687 1.80205H3.20047V0.502249H4.39687V1.80205ZM5.80264 32.5423H4.60624V31.2425H5.80264V32.5423ZM5.80264 31.0151H4.60624V29.7153H5.80264V31.0151ZM5.80264 29.4878H4.60624V28.188H5.80264V29.4878ZM5.80264 27.928H4.60624V26.6282H5.80264V27.928ZM5.80264 26.4008H4.60624V25.101H5.80264V26.4008ZM5.80264 24.8735H4.60624V23.5737H5.80264V24.8735ZM5.80264 23.3462H4.60624V22.0464H5.80264V23.3462ZM5.80264 21.7865H4.60624V20.4867H5.80264V21.7865ZM5.80264 20.2592H4.60624V18.9594H5.80264V20.2592ZM5.80264 18.732H4.60624V17.4322H5.80264V18.732ZM5.80264 17.1722H4.60624V15.8724H5.80264V17.1722ZM5.80264 15.6449H4.60624V14.3451H5.80264V15.6449ZM5.80264 14.1177H4.60624V12.8179H5.80264V14.1177ZM5.80264 12.5579H4.60624V11.2581H5.80264V12.5579ZM5.80264 11.0306H4.60624V9.73083H5.80264V11.0306ZM5.80264 9.50337H4.60624V8.20357H5.80264V9.50337ZM5.80264 7.94361H4.60624V6.64381H5.80264V7.94361ZM5.80264 6.41634H4.60624V5.11654H5.80264V6.41634ZM5.80264 4.88908H4.60624V3.58928H5.80264V4.88908ZM5.80264 3.32931H4.60624V2.02951H5.80264V3.32931ZM5.80264 1.80205H4.60624V0.502249H5.80264V1.80205ZM7.20841 32.5423H6.01201V31.2425H7.20841V32.5423ZM7.20841 31.0151H6.01201V29.7153H7.20841V31.0151ZM7.20841 3.32931H6.01201V2.02951H7.20841V3.32931ZM7.20841 1.80205H6.01201V0.502249H7.20841V1.80205ZM8.61418 32.5423H7.41778V31.2425H8.61418V32.5423ZM8.61418 31.0151H7.41778V29.7153H8.61418V31.0151ZM8.61418 3.32931H7.41778V2.02951H8.61418V3.32931ZM8.61418 1.80205H7.41778V0.502249H8.61418V1.80205ZM10.0499 32.5423H8.85346V31.2425H10.0499V32.5423ZM10.0499 31.0151H8.85346V29.7153H10.0499V31.0151ZM10.0499 3.32931H8.85346V2.02951H10.0499V3.32931ZM10.0499 1.80205H8.85346V0.502249H10.0499V1.80205ZM10.2592 2.02951H11.4556V3.32931H10.2592V2.02951ZM11.4556 32.5423H10.2592V31.2425H11.4556V32.5423ZM11.4556 31.0151H10.2592V29.7153H11.4556V31.0151ZM12.8614 32.5423H11.665V31.2425H12.8614V32.5423ZM12.8614 31.0151H11.665V29.7153H12.8614V31.0151ZM12.8614 3.32931H11.665V2.02951H12.8614V3.32931ZM12.8614 1.80205H11.665V0.502249H12.8614V1.80205ZM13.0708 14.3451H14.2672V15.6449H13.0708V14.3451ZM14.2672 32.5423H13.0708V31.2425H14.2672V32.5423ZM14.2672 31.0151H13.0708V29.7153H14.2672V31.0151ZM14.2672 29.4878H13.0708V28.188H14.2672V29.4878ZM14.2672 27.928H13.0708V26.6282H14.2672V27.928ZM14.2672 26.4008H13.0708V25.101H14.2672V26.4008ZM14.2672 24.8735H13.0708V23.5737H14.2672V24.8735ZM14.2672 23.3462H13.0708V22.0464H14.2672V23.3462ZM14.2672 14.1177H13.0708V12.8179H14.2672V14.1177ZM14.2672 11.0306H13.0708V9.73083H14.2672V11.0306ZM15.6729 32.5423H14.4765V31.2425H15.6729V32.5423ZM15.6729 31.0151H14.4765V29.7153H15.6729V31.0151ZM15.6729 29.4878H14.4765V28.188H15.6729V29.4878ZM15.6729 27.928H14.4765V26.6282H15.6729V27.928ZM15.6729 26.4008H14.4765V25.101H15.6729V26.4008ZM15.6729 24.8735H14.4765V23.5737H15.6729V24.8735ZM15.6729 23.3462H14.4765V22.0464H15.6729V23.3462ZM15.6729 15.6449H14.4765V14.3451H15.6729V15.6449ZM15.6729 14.1177H14.4765V12.8179H15.6729V14.1177ZM15.6729 12.5579H14.4765V11.2581H15.6729V12.5579ZM15.6729 11.0306H14.4765V9.73083H15.6729V11.0306ZM15.6729 3.32931H14.4765V2.02951H15.6729V3.32931ZM15.6729 1.80205H14.4765V0.502249H15.6729V1.80205ZM15.8823 14.3451H17.0787V15.6449H15.8823V14.3451ZM17.0787 32.5423H15.8823V31.2425H17.0787V32.5423ZM17.0787 31.0151H15.8823V29.7153H17.0787V31.0151ZM17.0787 29.4878H15.8823V28.188H17.0787V29.4878ZM17.0787 27.928H15.8823V26.6282H17.0787V27.928ZM17.0787 26.4008H15.8823V25.101H17.0787V26.4008ZM17.0787 24.8735H15.8823V23.5737H17.0787V24.8735ZM17.0787 23.3462H15.8823V22.0464H17.0787V23.3462ZM17.0787 11.0306H15.8823V9.73083H17.0787V11.0306ZM18.4845 32.5423H17.2881V31.2425H18.4845V32.5423ZM18.4845 31.0151H17.2881V29.7153H18.4845V31.0151ZM18.4845 29.4878H17.2881V28.188H18.4845V29.4878ZM18.4845 27.928H17.2881V26.6282H18.4845V27.928ZM18.4845 26.4008H17.2881V25.101H18.4845V26.4008ZM18.4845 24.8735H17.2881V23.5737H18.4845V24.8735ZM18.4845 23.3462H17.2881V22.0464H18.4845V23.3462ZM18.4845 21.7865H18.1256C18.2452 21.7865 18.3648 21.7865 18.4845 21.7865ZM18.4845 15.6449H17.2881V14.3451H18.4845V15.6449ZM18.4845 14.1177H17.2881V12.8179H18.4845V14.1177ZM18.4845 12.5579H17.2881V11.2581H18.4845V12.5579ZM18.4845 11.0306H17.2881V9.73083H18.4845V11.0306ZM18.0059 3.55678H18.4845V3.58928H18.5144C18.3648 3.58928 18.1854 3.55678 18.0059 3.55678ZM19.8902 32.5423H18.6938V31.2425H19.8902V32.5423ZM19.8902 31.0151H18.6938V29.7153H19.8902V31.0151ZM19.8902 29.4878H18.6938V28.188H19.8902V29.4878ZM19.8902 27.928H18.6938V26.6282H19.8902V27.928ZM19.8902 26.4008H18.6938V25.101H19.8902V26.4008ZM19.8902 24.8735H18.6938V23.5737H19.8902V24.8735ZM19.8902 23.3462H18.6938V22.0464H19.8902V23.3462ZM19.8902 21.7865H18.6938V21.754C18.634 21.754 18.5742 21.754 18.5144 21.754C18.9929 21.7215 19.4416 21.6565 19.8902 21.5265V21.7865ZM18.6938 3.62177V3.58928H19.8902V3.88173C19.9202 3.88173 19.9501 3.91423 19.98 3.91423C19.5912 3.75175 19.1425 3.65426 18.6938 3.62177ZM21.3259 32.5423H20.1295V31.2425H21.3259V32.5423ZM21.3259 31.0151H20.1295V29.7153H21.3259V31.0151ZM21.3259 29.4878H20.1295V28.188H21.3259V29.4878ZM21.3259 27.928H20.1295V26.6282H21.3259V27.928ZM21.3259 26.4008H20.1295V25.101H21.3259V26.4008ZM21.3259 24.8735H20.1295V23.5737H21.3259V24.8735ZM21.3259 23.3462H20.1295V22.0464H21.3259V23.3462ZM21.3259 21.7865H20.1295V21.4615C20.5483 21.3316 20.9371 21.1691 21.3259 20.9416V21.7865ZM21.3259 4.43414C20.9371 4.20668 20.5184 4.0442 20.0697 3.88173C20.0996 3.88173 20.0996 3.88173 20.1295 3.88173V3.52428H21.3259V4.43414ZM21.3259 3.32931H20.1295V2.02951H21.3259V3.32931ZM21.3259 1.80205H20.1295V0.502249H21.3259V1.80205ZM22.7317 32.5423H21.5353V31.2425H22.7317V32.5423ZM22.7317 31.0151H21.5353V29.7153H22.7317V31.0151ZM22.7317 29.4878H21.5353V28.188H22.7317V29.4878ZM22.7317 27.928H21.5353V26.6282H22.7317V27.928ZM22.7317 26.4008H21.5353V25.101H22.7317V26.4008ZM22.7317 24.8735H21.5353V23.5737H22.7317V24.8735ZM22.7317 23.3462H21.5353V22.0464H22.7317V23.3462ZM22.7317 21.7865H21.5353V20.8441C21.5054 20.8441 21.5054 20.8441 21.4755 20.8766C21.6848 20.7466 21.8942 20.6167 22.1036 20.4867H22.7317V21.7865ZM22.7317 20.2592H22.4027C22.5223 20.1617 22.6121 20.0967 22.7317 19.9993V20.2592ZM22.7317 5.40899C22.6121 5.31151 22.4924 5.21403 22.3728 5.11654H22.7317V5.40899ZM22.7317 4.88908H22.0438C21.8344 4.7266 21.5951 4.59662 21.3857 4.46664C21.4456 4.49914 21.4755 4.49913 21.5353 4.53163V3.55678H22.7317V4.88908ZM22.7317 3.32931H21.5353V2.02951H22.7317V3.32931ZM22.7317 1.80205H21.5353V0.502249H22.7317V1.80205ZM24.1375 32.5423H22.9411V31.2425H24.1375V32.5423ZM24.1375 31.0151H22.9411V29.7153H24.1375V31.0151ZM24.1375 29.4878H22.9411V28.188H24.1375V29.4878ZM24.1375 27.928H22.9411V26.6282H24.1375V27.928ZM24.1375 26.4008H22.9411V25.101H24.1375V26.4008ZM24.1375 24.8735H22.9411V23.5737H24.1375V24.8735ZM24.1375 23.3462H22.9411V22.0464H24.1375V23.3462ZM24.1375 21.7865H22.9411V20.4867H24.1375V21.7865ZM24.1375 20.2592H22.9411V19.8043C23.2103 19.5443 23.4794 19.2519 23.7486 18.9594H24.1375V20.2592ZM24.1375 18.732H23.9281C24.0178 18.6345 24.0776 18.537 24.1375 18.407V18.732ZM24.1375 6.96876C24.0477 6.87127 23.9879 6.74129 23.8982 6.64381H24.1375V6.96876ZM24.1375 6.41634H23.7187C23.4794 6.12389 23.2103 5.86393 22.9411 5.60397V5.11654H24.1375V6.41634ZM24.1375 4.88908H22.9411V3.58928H24.1375V4.88908ZM24.1375 3.32931H22.9411V2.02951H24.1375V3.32931ZM24.1375 1.80205H22.9411V0.502249H24.1375V1.80205ZM25.5432 32.5423H24.3468V31.2425H25.5432V32.5423ZM25.5432 31.0151H24.3468V29.7153H25.5432V31.0151ZM25.5432 29.4878H24.3468V28.188H25.5432V29.4878ZM25.5432 27.928H24.3468V26.6282H25.5432V27.928ZM25.5432 26.4008H24.3468V25.101H25.5432V26.4008ZM25.5432 24.8735H24.3468V23.5737H25.5432V24.8735ZM25.5432 23.3462H24.3468V22.0464H25.5432V23.3462ZM25.5432 21.7865H24.3468V20.4867H25.5432V21.7865ZM25.5432 20.2592H24.3468V18.9594H25.5432V20.2592ZM25.5432 14.1177C25.5432 14.1827 25.5432 14.2801 25.5432 14.3451V15.6449H25.3339C25.304 15.7099 25.304 15.8074 25.274 15.8724H25.5432V17.1722H24.8254C24.8254 17.2047 24.7955 17.2047 24.7955 17.2372C24.7656 17.3022 24.7357 17.3672 24.7058 17.4322H25.5432V18.732H24.3468V18.0821C24.5263 17.8221 24.6758 17.5296 24.7955 17.2372C24.7955 17.2047 24.8254 17.2047 24.8254 17.1722C25.0049 16.7498 25.1843 16.3273 25.304 15.8724C25.3339 15.8074 25.3339 15.7099 25.3638 15.6449C25.4535 15.2225 25.5133 14.7676 25.5432 14.3451C25.5133 14.2476 25.5432 14.1827 25.5432 14.1177C25.5432 14.0527 25.5432 14.0202 25.5432 13.9552V14.1177ZM25.5432 9.50337H25.304C25.3339 9.56836 25.3339 9.63335 25.3638 9.73083H25.5432V11.0306C25.5133 10.5757 25.4535 10.1533 25.3638 9.69834C25.3339 9.63335 25.3339 9.53586 25.304 9.47087C25.1843 9.01594 25.0348 8.59351 24.8254 8.17107H25.5432V9.50337ZM25.5432 7.94361H24.7058C24.5861 7.71614 24.4665 7.48868 24.3169 7.29371V6.64381H25.5133V7.94361H25.5432ZM25.5432 6.41634H24.3468V5.11654H25.5432V6.41634ZM25.5432 4.88908H24.3468V3.58928H25.5432V4.88908ZM25.5432 3.32931H24.3468V2.02951H25.5432V3.32931ZM25.5432 1.80205H24.3468V0.502249H25.5432V1.80205ZM26.949 32.5423H25.7526V31.2425H26.949V32.5423ZM26.949 31.0151H25.7526V29.7153H26.949V31.0151ZM26.949 29.4878H25.7526V28.188H26.949V29.4878ZM26.949 27.928H25.7526V26.6282H26.949V27.928ZM26.949 26.4008H25.7526V25.101H26.949V26.4008ZM26.949 24.8735H25.7526V23.5737H26.949V24.8735ZM26.949 23.3462H25.7526V22.0464H26.949V23.3462ZM26.949 21.7865H25.7526V20.4867H26.949V21.7865ZM26.949 20.2592H25.7526V18.9594H26.949V20.2592ZM26.949 18.732H25.7526V17.4322H26.949V18.732ZM26.949 17.1722H25.7526V15.8724H26.949V17.1722ZM26.949 15.6449H25.7526V14.3451H26.949V15.6449ZM26.949 14.1177H25.7526V12.8179H26.949V14.1177ZM26.949 12.5579H25.7526V11.2581H26.949V12.5579ZM26.949 11.0306H25.7526V9.73083H26.949V11.0306ZM26.949 9.50337H25.7526V8.20357H26.949V9.50337ZM26.949 7.94361H25.7526V6.64381H26.949V7.94361ZM26.949 6.41634H25.7526V5.11654H26.949V6.41634ZM26.949 4.88908H25.7526V3.58928H26.949V4.88908ZM26.949 3.32931H25.7526V2.02951H26.949V3.32931ZM26.949 1.80205H25.7526V0.502249H26.949V1.80205ZM28.3548 32.5423H27.1584V31.2425H28.3548V32.5423ZM28.3548 31.0151H27.1584V29.7153H28.3548V31.0151ZM28.3548 29.4878H27.1584V28.188H28.3548V29.4878ZM28.3548 27.928H27.1584V26.6282H28.3548V27.928ZM28.3548 26.4008H27.1584V25.101H28.3548V26.4008ZM28.3548 24.8735H27.1584V23.5737H28.3548V24.8735ZM28.3548 23.3462H27.1584V22.0464H28.3548V23.3462ZM28.3548 21.7865H27.1584V20.4867H28.3548V21.7865ZM28.3548 20.2592H27.1584V18.9594H28.3548V20.2592ZM28.3548 18.732H27.1584V17.4322H28.3548V18.732ZM28.3548 17.1722H27.1584V15.8724H28.3548V17.1722ZM28.3548 15.6449H27.1584V14.3451H28.3548V15.6449ZM28.3548 14.1177H27.1584V12.8179H28.3548V14.1177ZM28.3548 12.5579H27.1584V11.2581H28.3548V12.5579ZM28.3548 11.0306H27.1584V9.73083H28.3548V11.0306ZM28.3548 9.50337H27.1584V8.20357H28.3548V9.50337ZM28.3548 7.94361H27.1584V6.64381H28.3548V7.94361ZM28.3548 6.41634H27.1584V5.11654H28.3548V6.41634ZM28.3548 4.88908H27.1584V3.58928H28.3548V4.88908ZM28.3548 3.32931H27.1584V2.02951H28.3548V3.32931ZM28.3548 1.80205H27.1584V0.502249H28.3548V1.80205ZM29.7605 32.5423H28.5641V31.2425H29.7605V32.5423ZM29.7605 31.0151H28.5641V29.7153H29.7605V31.0151ZM29.7605 29.4878H28.5641V28.188H29.7605V29.4878ZM29.7605 27.928H28.5641V26.6282H29.7605V27.928ZM29.7605 26.4008H28.5641V25.101H29.7605V26.4008ZM29.7605 24.8735H28.5641V23.5737H29.7605V24.8735ZM29.7605 23.3462H28.5641V22.0464H29.7605V23.3462ZM29.7605 21.7865H28.5641V20.4867H29.7605V21.7865ZM29.7605 20.2592H28.5641V18.9594H29.7605V20.2592ZM29.7605 18.732H28.5641V17.4322H29.7605V18.732ZM29.7605 17.1722H28.5641V15.8724H29.7605V17.1722ZM29.7605 15.6449H28.5641V14.3451H29.7605V15.6449ZM29.7605 14.1177H28.5641V12.8179H29.7605V14.1177ZM29.7605 12.5579H28.5641V11.2581H29.7605V12.5579ZM29.7605 11.0306H28.5641V9.73083H29.7605V11.0306ZM29.7605 9.50337H28.5641V8.20357H29.7605V9.50337ZM29.7605 7.94361H28.5641V6.64381H29.7605V7.94361ZM29.7605 6.41634H28.5641V5.11654H29.7605V6.41634ZM29.7605 4.88908H28.5641V3.58928H29.7605V4.88908ZM29.7605 3.32931H28.5641V2.02951H29.7605V3.32931ZM29.7605 1.80205H28.5641V0.502249H29.7605V1.80205Z" fill="#1A1919"/>
<path fill-rule="evenodd" clip-rule="evenodd" d="M34.4561 27.8956H37.5667C40.9166 27.9281 41.5447 25.556 41.5447 23.9962C41.5447 22.404 40.9166 20.0643 37.5667 20.0643H32.4222V32.7699H34.4561V27.8956ZM34.4561 21.884H37.477C38.5537 21.884 39.4809 22.3065 39.4809 23.9962C39.4809 25.5885 38.3444 26.1084 37.4471 26.1084H34.4561V21.884Z" fill="#1A1919"/>
<path fill-rule="evenodd" clip-rule="evenodd" d="M48.6337 26.9857V32.7698H50.4881V26.4658C50.4881 24.3861 49.3216 23.3463 47.4971 23.3463C46.3904 23.3463 45.4034 23.9637 44.9548 24.8085H44.9249V20.0968H43.0704V32.8023H44.9249V27.3757C44.9249 26.0109 45.7324 24.9385 46.9587 24.9385C48.0953 24.9385 48.6038 25.5559 48.6337 26.9857Z" fill="#1A1919"/>
<path d="M54.3765 20.0643H52.5221V21.9815H54.3765V20.0643Z" fill="#1A1919"/>
<path d="M54.3765 23.5737H52.5221V32.7698H54.3765V23.5737Z" fill="#1A1919"/>
<path d="M58.3246 20.0643H56.4702V32.7699H58.3246V20.0643Z" fill="#1A1919"/>
<path d="M62.2724 20.0643H60.418V32.7699H62.2724V20.0643Z" fill="#1A1919"/>
<path d="M66.2207 20.0643H64.3663V21.9815H66.2207V20.0643Z" fill="#1A1919"/>
<path d="M66.2207 23.5737H64.3663V32.7698H66.2207V23.5737Z" fill="#1A1919"/>
<path fill-rule="evenodd" clip-rule="evenodd" d="M72.741 23.3463C71.6642 23.3463 70.6473 23.8012 70.1089 24.841H70.079V23.6062H68.3143V36.2143H70.1687V31.6325H70.1987C70.7969 32.6398 71.9633 33.0623 73.0401 33.0623C75.5525 33.0623 76.6891 30.7226 76.6891 28.253C76.719 25.5559 75.403 23.3463 72.741 23.3463ZM72.5017 31.4375C71.0062 31.4375 70.1388 30.0402 70.1388 28.188C70.1388 26.2383 70.9464 24.9385 72.5017 24.9385C74.0271 24.9385 74.8347 26.5308 74.8347 28.188C74.8347 29.7803 74.2066 31.4375 72.5017 31.4375Z" fill="#1A1919"/>
<path fill-rule="evenodd" clip-rule="evenodd" d="M83.5685 31.2751C81.056 31.2751 80.0092 28.8705 80.0092 26.4334C80.0092 23.9962 81.056 21.5916 83.5685 21.5916C85.2734 21.5916 86.1407 22.6639 86.4997 24.1262H88.5335C88.2943 21.3966 86.2006 19.8044 83.5685 19.7719C80.069 19.7719 77.9753 22.7939 77.9753 26.4334C77.9753 30.0728 80.069 33.0948 83.5685 33.0948C86.4099 33.0948 88.384 30.9827 88.5335 27.9606H86.5296C86.38 29.7804 85.393 31.2751 83.5685 31.2751Z" fill="#1A1919"/>
<path fill-rule="evenodd" clip-rule="evenodd" d="M97.2373 30.7226V25.9783C97.2373 24.0286 95.5026 23.3137 93.8575 23.3137C92.0031 23.3137 90.1487 23.9961 89.9991 26.3683H91.8535C91.9433 25.3609 92.6611 24.906 93.708 24.906C94.4557 24.906 95.4726 25.1009 95.4726 26.1408C95.4726 27.3431 94.2762 27.1806 92.9303 27.4406C91.3451 27.6356 89.6701 28.0255 89.6701 30.3002C89.6701 32.0874 91.046 32.9972 92.5714 32.9972C93.5584 32.9972 94.7548 32.6723 95.5026 31.8924C95.6521 32.7373 96.1905 32.9972 96.9382 32.9972C97.2373 32.9972 97.8355 32.8673 98.1047 32.7698V31.3725C97.8953 31.405 97.7757 31.405 97.6561 31.405C97.357 31.4375 97.2373 31.2425 97.2373 30.7226ZM95.3829 29.6827C95.3829 30.95 94.0968 31.4375 93.2892 31.4375C92.6312 31.4375 91.5544 31.1775 91.5544 30.2677C91.5544 29.1953 92.2723 28.8704 93.0798 28.7404C93.8874 28.5779 94.7847 28.6104 95.3829 28.188V29.6827Z" fill="#1A1919"/>
<path fill-rule="evenodd" clip-rule="evenodd" d="M107.706 28.2205C107.706 25.5234 106.42 23.3137 103.728 23.3137C102.651 23.3137 101.634 23.7686 101.096 24.8085H101.066V23.5737H99.3013V36.1817H101.156V31.5999H101.186C101.784 32.6073 102.95 33.0297 104.027 33.0297C106.54 33.0297 107.706 30.6901 107.706 28.2205ZM103.489 31.4375C101.993 31.4375 101.126 30.0402 101.126 28.188C101.126 26.2383 101.933 24.9385 103.489 24.9385C105.014 24.9385 105.822 26.5307 105.822 28.188C105.822 29.7802 105.194 31.4375 103.489 31.4375Z" fill="#1A1919"/>
<path d="M111.176 20.0643H109.321V21.9815H111.176V20.0643Z" fill="#1A1919"/>
<path d="M111.176 23.5737H109.321V32.7698H111.176V23.5737Z" fill="#1A1919"/>
<path fill-rule="evenodd" clip-rule="evenodd" d="M115.632 20.8116H113.778V23.5736H112.372V25.1009H113.778V30.5276C113.808 32.0548 114.166 32.8672 116.111 32.8672C116.529 32.8672 116.918 32.8022 117.337 32.7697V31.21C117.068 31.275 116.799 31.2749 116.559 31.2749C115.722 31.2749 115.662 30.8525 115.662 30.0076V25.1009H117.337V23.5736H115.662V20.8116H115.632Z" fill="#1A1919"/>
<path fill-rule="evenodd" clip-rule="evenodd" d="M126.669 32.8023V31.405C126.459 31.4375 126.31 31.4375 126.22 31.4375C125.891 31.4375 125.771 31.2425 125.771 30.7551V26.0108C125.771 24.0611 124.037 23.3463 122.392 23.3463C120.537 23.3463 118.683 24.0287 118.533 26.4008H120.388C120.477 25.3934 121.195 24.9385 122.242 24.9385C122.99 24.9385 124.007 25.1335 124.007 26.1733C124.007 27.3756 122.81 27.2132 121.464 27.4731C119.879 27.6681 118.204 28.058 118.204 30.3327C118.204 32.1199 119.58 33.0298 121.105 33.0298C122.092 33.0298 123.289 32.7048 124.037 31.9249C124.186 32.7698 124.725 33.0298 125.472 33.0298C125.801 33.0298 126.399 32.8998 126.669 32.8023ZM123.887 29.6828C123.887 30.9501 122.601 31.4375 121.793 31.4375C121.135 31.4375 120.088 31.1776 120.088 30.2677C120.088 29.1954 120.806 28.8704 121.614 28.7404C122.421 28.578 123.349 28.6104 123.917 28.188V29.6828H123.887Z" fill="#1A1919"/>
<path d="M129.69 20.0643H127.835V32.7699H129.69V20.0643Z" fill="#1A1919"/>
<path fill-rule="evenodd" clip-rule="evenodd" d="M3.40974 41.6409L1.73478 38.5864H0L2.60217 43.2657V46.2552H4.15749V43.3307L6.75966 38.5864H5.02488L3.40974 41.6409Z" fill="#1A1919"/>
<path fill-rule="evenodd" clip-rule="evenodd" d="M9.69095 40.5685C8.07581 40.5685 7.05887 41.7384 7.05887 43.4931C7.05887 45.2478 8.10572 46.4176 9.69095 46.4176C11.3061 46.4176 12.323 45.2478 12.323 43.4931C12.323 41.7384 11.3061 40.5685 9.69095 40.5685ZM9.69095 45.2803C8.73383 45.2803 8.46464 44.403 8.46464 43.5256C8.46464 42.6482 8.76374 41.7384 9.69095 41.7384C10.6481 41.7384 10.9472 42.6157 10.9472 43.5256C10.9472 44.3705 10.6481 45.2803 9.69095 45.2803Z" fill="#1A1919"/>
<path fill-rule="evenodd" clip-rule="evenodd" d="M17.5571 43.6232C17.5571 44.7605 17.2281 45.2154 16.4803 45.2154C15.8223 45.2154 15.583 44.7605 15.583 43.8506V40.7311H14.1772V44.1431C14.1772 45.5079 14.5661 46.4177 16.0317 46.4177C16.6299 46.4177 17.2281 46.1253 17.587 45.5079H17.6169V46.2878H18.9628V40.7311H17.5571V43.6232Z" fill="#1A1919"/>
<path fill-rule="evenodd" clip-rule="evenodd" d="M22.2828 41.7384L22.2529 40.6986H20.907V46.2552H22.3127V43.7531C22.3127 42.7783 22.6716 41.9659 23.6886 41.9659C23.868 41.9659 24.0774 41.9984 24.1971 42.0309V40.6011C24.1073 40.5686 23.9877 40.5361 23.898 40.5361C23.21 40.5686 22.5221 41.056 22.2828 41.7384Z" fill="#1A1919"/>
<path fill-rule="evenodd" clip-rule="evenodd" d="M32.6616 38.5864H29.4912V46.2552H31.0465V43.4931H32.6916C34.4562 43.4931 35.1442 42.2908 35.1442 41.0235C35.1143 39.8212 34.4263 38.5864 32.6616 38.5864ZM32.2429 42.1933H31.0465V39.8862H32.2429C32.9607 39.8862 33.6188 40.0487 33.6188 41.0235C33.5889 42.0309 32.9607 42.1933 32.2429 42.1933Z" fill="#1A1919"/>
<path fill-rule="evenodd" clip-rule="evenodd" d="M41.4253 42.1284C41.4253 40.7961 40.199 40.5361 39.1821 40.5361C38.0455 40.5361 36.8491 40.9585 36.7893 42.3883H38.195C38.2548 41.7709 38.5839 41.5434 39.1222 41.5434C39.6008 41.5434 40.0195 41.6409 40.0195 42.2908C40.0195 42.9082 39.212 42.8757 38.3745 43.0057C37.5071 43.1357 36.6397 43.4282 36.6397 44.6955C36.6397 45.8328 37.4174 46.3527 38.3745 46.3527C39.0026 46.3527 39.6606 46.1577 40.0794 45.6703C40.0794 45.8653 40.1392 46.0278 40.1691 46.2227H41.6048C41.4851 45.9953 41.4253 45.5078 41.4253 44.9879V42.1284ZM40.0195 44.1106C40.0195 44.4355 39.9896 45.3779 38.883 45.3779C38.4343 45.3779 38.0156 45.2479 38.0156 44.663C38.0156 44.1106 38.4044 43.9481 38.853 43.8506C39.3017 43.7531 39.7803 43.7531 40.0195 43.5256V44.1106Z" fill="#1A1919"/>
<path fill-rule="evenodd" clip-rule="evenodd" d="M44.7151 41.7384L44.6852 40.6986H43.3392V46.2552H44.745V43.7531C44.745 42.7783 45.1039 41.9659 46.1209 41.9659C46.3003 41.9659 46.5097 41.9984 46.6293 42.0309V40.6011C46.5396 40.5686 46.42 40.5361 46.3302 40.5361C45.6722 40.5686 44.9843 41.056 44.7151 41.7384Z" fill="#1A1919"/>
<path fill-rule="evenodd" clip-rule="evenodd" d="M49.8602 39.0413H48.4544V40.6985H47.6169V41.7059H48.4544V44.9879C48.4544 46.0927 49.2021 46.3202 50.0695 46.3202C50.3387 46.3202 50.6677 46.3202 50.8771 46.2552V45.0529C50.7276 45.0854 50.578 45.0854 50.4285 45.0854C49.9499 45.0854 49.8303 44.9554 49.8303 44.4355V41.7384H50.8472V40.731H49.8602V39.0413Z" fill="#1A1919"/>
<path fill-rule="evenodd" clip-rule="evenodd" d="M55.3933 40.5685C54.7951 40.5685 54.1969 40.861 53.838 41.4784H53.8081V40.6985H52.4622V46.2552H53.8679V43.3306C53.8679 42.1933 54.1969 41.7384 54.9447 41.7384C55.6027 41.7384 55.842 42.1933 55.842 43.1032V46.2227H57.2478V42.8107C57.2478 41.4784 56.8888 40.5685 55.3933 40.5685Z" fill="#1A1919"/>
<path fill-rule="evenodd" clip-rule="evenodd" d="M61.4649 40.5685C59.9095 40.5685 58.8627 41.8358 58.8627 43.4931C58.8627 45.2153 59.8497 46.4176 61.4649 46.4176C62.6314 46.4176 63.4688 45.8652 63.8577 44.5654H62.6314C62.5416 44.9229 62.093 45.2803 61.5247 45.2803C60.747 45.2803 60.2984 44.8254 60.2685 43.883H63.9474C64.067 42.1608 63.2296 40.5685 61.4649 40.5685ZM60.2685 42.9082C60.2984 42.4858 60.5377 41.7384 61.435 41.7384C62.1229 41.7384 62.422 42.1608 62.5416 42.9082H60.2685Z" fill="#1A1919"/>
<path fill-rule="evenodd" clip-rule="evenodd" d="M66.9984 41.7384L66.9685 40.6986H65.6226V46.2552H67.0284V43.7531C67.0284 42.7783 67.3873 41.9659 68.4042 41.9659C68.5837 41.9659 68.793 41.9984 68.9127 42.0309V40.6011C68.823 40.5686 68.7033 40.5361 68.6136 40.5361C67.9257 40.5686 67.2377 41.056 66.9984 41.7384Z" fill="#1A1919"/>
<path d="M75.8516 38.5864H74.2963V46.2552H75.8516V38.5864Z" fill="#1A1919"/>
<path fill-rule="evenodd" clip-rule="evenodd" d="M80.8468 40.5685C80.2486 40.5685 79.6504 40.861 79.2914 41.4784H79.2615V40.6985H77.9156V46.2552H79.3214V43.3306C79.3214 42.1933 79.6504 41.7384 80.3981 41.7384C81.0561 41.7384 81.2954 42.1933 81.2954 43.1032V46.2227H82.7012V42.8107C82.7311 41.4784 82.3423 40.5685 80.8468 40.5685Z" fill="#1A1919"/>
<path fill-rule="evenodd" clip-rule="evenodd" d="M88.6233 46.2552H90.1786V43.1032H93.1397V41.8034H90.1786V40.0162H93.5884V38.5864H88.6233V46.2552Z" fill="#1A1919"/>
<path d="M96.6991 38.5864H95.2933V39.8537H96.6991V38.5864Z" fill="#1A1919"/>
<path d="M96.6991 40.7311H95.2933V46.2878H96.6991V40.7311Z" fill="#1A1919"/>
<path fill-rule="evenodd" clip-rule="evenodd" d="M101.634 40.5685C101.036 40.5685 100.438 40.861 100.079 41.4784H100.049V40.6985H98.7031V46.2552H100.109V43.3306C100.109 42.1933 100.438 41.7384 101.186 41.7384C101.844 41.7384 102.083 42.1933 102.083 43.1032V46.2227H103.489V42.8107C103.489 41.4784 103.13 40.5685 101.634 40.5685Z" fill="#1A1919"/>
<path fill-rule="evenodd" clip-rule="evenodd" d="M109.949 42.1284C109.949 40.7961 108.723 40.5361 107.706 40.5361C106.569 40.5361 105.373 40.9585 105.313 42.3883H106.719C106.779 41.7709 107.108 41.5434 107.646 41.5434C108.155 41.5434 108.543 41.6409 108.543 42.2908C108.543 42.9082 107.736 42.8757 106.898 43.0057C106.031 43.1357 105.164 43.4282 105.164 44.6955C105.164 45.8328 105.941 46.3527 106.898 46.3527C107.526 46.3527 108.185 46.1577 108.603 45.6703C108.603 45.8653 108.663 46.0278 108.693 46.2227H110.129C110.009 45.9953 109.949 45.5078 109.949 44.9879V42.1284ZM108.543 44.1106C108.543 44.4355 108.514 45.3779 107.407 45.3779C106.958 45.3779 106.539 45.2479 106.539 44.663C106.539 44.1106 106.928 43.9481 107.377 43.8506C107.826 43.7531 108.304 43.7531 108.543 43.5256V44.1106Z" fill="#1A1919"/>
<path fill-rule="evenodd" clip-rule="evenodd" d="M114.824 40.5685C114.226 40.5685 113.628 40.861 113.269 41.4784H113.239V40.6985H111.893V46.2552H113.299V43.3306C113.299 42.1933 113.628 41.7384 114.376 41.7384C115.034 41.7384 115.273 42.1933 115.273 43.1032V46.2227H116.679V42.8107C116.679 41.4784 116.32 40.5685 114.824 40.5685Z" fill="#1A1919"/>
<path fill-rule="evenodd" clip-rule="evenodd" d="M121.076 45.2803C120.208 45.2803 119.909 44.338 119.909 43.5256C119.909 42.7132 120.208 41.7384 121.106 41.7384C121.674 41.7384 122.063 42.0633 122.152 42.6807H123.528C123.439 41.2509 122.332 40.5685 121.135 40.5685C119.461 40.5685 118.533 41.8359 118.533 43.5906C118.533 45.2478 119.58 46.4176 121.106 46.4176C122.452 46.4176 123.379 45.6053 123.558 44.143H122.212C122.093 44.8254 121.734 45.2803 121.076 45.2803Z" fill="#1A1919"/>
<path fill-rule="evenodd" clip-rule="evenodd" d="M127.506 40.5685C125.951 40.5685 124.904 41.8358 124.904 43.4931C124.904 45.2153 125.891 46.4176 127.506 46.4176C128.673 46.4176 129.51 45.8652 129.899 44.5654H128.673C128.583 44.9229 128.134 45.2803 127.566 45.2803C126.788 45.2803 126.34 44.8254 126.31 43.883H129.989C130.108 42.1608 129.271 40.5685 127.506 40.5685ZM126.31 42.9082C126.34 42.4858 126.579 41.7384 127.476 41.7384C128.164 41.7384 128.463 42.1608 128.583 42.9082H126.31Z" fill="#1A1919"/>
</svg>