<svg
                            xmlns="http://www.w3.org/2000/svg"
                            width="29"
                            height="29"
                            viewBox="0 0 29 29"
                            fill="none"
                        >
                            <path
                                fillRule="evenodd"
                                clipRule="evenodd"
                                d="M19.9035 28.0856C15.5128 26.8394 11.37 24.4877 7.9165 21.0342C4.463 17.5807 2.11127 13.4379 0.86506 9.04723C0.857672 9.0212 0.850339 8.9954 0.843063 8.9698C0.64024 8.25616 0.48296 7.70276 0.4807 6.94391C0.478118 6.0766 0.760691 4.99002 1.18547 4.23384C1.91598 2.93341 3.48453 1.26684 4.83935 0.581575C6.00995 -0.0105085 7.39237 -0.010509 8.56296 0.581575C9.72104 1.16733 11.0108 2.47847 11.7298 3.58433C12.6187 4.95154 12.6187 6.71412 11.7298 8.08133C11.4916 8.4477 11.152 8.78665 10.7579 9.18014C10.6352 9.30267 10.5001 9.3912 10.5898 9.57805C11.4805 11.4333 12.6953 13.1735 14.2363 14.7144C15.7772 16.2554 17.5174 17.4702 19.3727 18.3609C19.5661 18.4538 19.6423 18.3212 19.7706 18.1928C20.1641 17.7986 20.503 17.4591 20.8694 17.2209C22.2366 16.332 23.9992 16.332 25.3664 17.2209C26.4426 17.9207 27.788 19.2387 28.3691 20.3877C28.9612 21.5583 28.9612 22.9408 28.3691 24.1113C27.6839 25.4662 26.0173 27.0347 24.7169 27.7652C23.9607 28.19 22.8741 28.4726 22.0068 28.47C21.2479 28.4677 20.6945 28.3105 19.9809 28.1076C19.9553 28.1004 19.9295 28.093 19.9035 28.0856Z"
                                fill="#EF6820"
                            />
                        </svg>