<svg xmlns="http://www.w3.org/2000/svg" width="106" height="51" viewBox="0 0 106 51" fill="none">
                            <path fill-rule="evenodd" clip-rule="evenodd" d="M34.0436 8.45089C34.1086 8.35285 34.1086 8.25482 34.0761 8.15678L34.0436 8.1241H34.011C33.3282 9.33325 32.5153 9.562 31.5724 9.62736C31.0847 9.66004 30.9871 9.79076 29.9466 10.5424C28.3209 11.7189 26.3049 10.5751 26.3049 10.5751C28.4184 11.1306 30.1742 10.2156 31.1497 8.15678C31.1497 8.15678 31.1497 8.15678 31.1497 8.1241H31.1172C30.5319 8.38553 29.2313 9.39861 26.1748 8.18946C25.0693 7.69926 23.8988 7.40514 23.3135 7.76462C22.7933 8.09142 22.4031 8.61429 22.208 9.23521C22.208 9.23521 22.208 9.23521 22.208 9.26789H22.2405C22.7607 9.07181 23.3135 8.67965 24.0288 9.66004C24.289 10.1176 24.6141 10.5424 24.9393 10.9672C25.7847 11.9476 27.0528 12.4378 28.3209 12.3725C31.4748 12.1437 33.5883 9.36593 34.0436 8.45089Z" fill="#5B5957" />
                            <path fill-rule="evenodd" clip-rule="evenodd" d="M6.60062 23.5489C7.31595 23.4182 8.9092 22.9934 9.65706 23.026C15.4123 23.2221 15.9325 18.9738 15.9975 17.8626C16.0301 16.8496 16.6479 15.9019 17.2656 15.5751C17.3307 15.5424 17.3307 15.5097 17.2331 15.5097C16.7454 15.5097 16.2577 15.5751 15.8025 15.6731C15.1196 15.8365 14.3393 16.4574 13.5264 18.026C12.7135 19.5947 10.0472 20.9672 9.23436 21.1633C11.3153 21.5228 13.4288 20.8365 14.9245 19.3332C14.9245 19.3332 14.3393 21.2287 11.8681 21.6862C11.8681 21.6862 9.88467 21.8169 8.48651 22.6012C7.80368 22.928 7.08835 23.1894 6.37301 23.3855C6.34049 23.4182 6.27546 23.6143 6.60062 23.5489Z" fill="#5B5957" />
                            <path fill-rule="evenodd" clip-rule="evenodd" d="M22.4356 35.3463C22.4356 35.3463 21.8503 32.6339 20.3546 33.0261C20.3546 33.0261 20.2896 31.8496 19.2816 31.3921C18.8914 31.0653 18.6313 30.6404 18.5012 30.1829C18.4037 29.8234 18.046 29.6274 17.6883 29.7254C17.0706 29.8888 17.4607 30.7712 17.4607 30.7712C17.6233 31.098 17.7209 31.4248 17.7209 31.7842C17.3957 32.3398 17.2656 32.9934 17.3957 33.6143C17.3957 33.6143 15.8675 34.3332 16.7779 36.5228C17.5908 35.8365 18.0135 35.1829 18.0785 34.6274C18.7288 35.2483 18.8914 36.2287 18.4687 37.0457C17.7534 38.4182 16.3552 39.3006 14.2417 37.83C12.1282 36.3594 11.4129 35.2483 9.68957 34.9215C7.96626 34.562 6.43804 35.0849 5.33252 34.4966C5.33252 34.4966 5.0724 35.2156 6.37301 35.5097C6.37301 35.5097 5.65767 35.9672 6.60062 36.0653C7.54356 36.1633 7.77117 35.9019 7.77117 35.9019C7.77117 35.9019 6.50307 37.2417 7.77117 40.477C9.03927 43.7123 13.689 46.7842 15.0221 46.8169C15.0221 46.8169 15.0221 46.8169 15.0221 46.7842C14.762 46.5555 12.681 44.6274 12.1282 42.9607C13.7215 43.8431 15.5748 44.0391 17.3307 43.5163C17.4282 43.8757 17.3957 44.2679 17.2656 44.6274C16.9405 45.6078 16.2577 47.6339 17.1356 47.7973C17.2982 47.1764 17.5258 46.5881 17.8834 46.0653C17.7859 46.3267 17.6558 46.6535 17.4933 46.9476C17.3632 47.2744 17.4282 47.6666 17.6558 47.928H17.6883C20.5822 44.0065 21.6552 39.0391 20.6147 34.2679C20.6147 34.3006 21.6552 35.4117 22.4356 35.3463ZM11.5755 36.5882C11.8681 36.294 12.4209 36.7189 12.4209 36.7189C12.746 36.9803 12.9086 37.3398 12.746 37.5359C12.5509 37.7319 12.1933 37.6339 11.9006 37.4705C11.5755 37.3071 11.2828 36.8823 11.5755 36.5882ZM13.3963 38.9411C13.0712 39.2025 12.5184 38.9738 12.5184 38.9738C12.5184 38.9738 11.673 38.7123 12.0307 38.2548C12.2583 37.9934 12.616 37.928 12.9086 38.1241C12.9411 38.1241 13.7215 38.647 13.3963 38.9411ZM15.6399 40.4444C15.5098 40.8038 14.9571 40.8692 14.5018 40.8038C14.0466 40.7385 13.3963 40.3136 13.6239 39.7908C13.8515 39.2679 14.7945 39.464 14.7945 39.464C15.3147 39.5293 15.7699 40.0522 15.6399 40.4444ZM16.3552 40.9346C16.3552 40.9346 15.8675 41.0653 15.9 40.7385C15.9325 40.5424 16.0951 40.4117 16.2902 40.4117C16.2902 40.4117 16.8429 40.4444 16.7779 40.6731C16.7129 40.9019 16.3552 40.9672 16.3552 40.9346ZM17.2982 40.1176C16.973 40.281 16.4202 40.281 16.3552 39.8561C16.2902 39.4313 16.973 39.2352 16.973 39.2352C17.3957 39.1372 17.8184 39.1699 17.8834 39.4313C17.9485 39.6927 17.6233 39.9868 17.2982 40.1176ZM18.6638 38.5816C18.6638 38.5816 18.4362 38.9738 18.2736 38.745C18.1761 38.6143 18.1761 38.4182 18.3061 38.3202C18.3061 38.3202 18.6313 37.9934 18.7288 38.1568C18.8264 38.3202 18.6313 38.5816 18.6638 38.5816Z" fill="#5B5957" />
                            <path fill-rule="evenodd" clip-rule="evenodd" d="M48.4153 22.928C48.4153 22.928 43.0178 24.6927 42.6276 34.0391C42.5301 36.1633 42.0748 36.5555 41.2294 37.3725C40.9043 39.6927 39.4736 42.5359 37.8153 43.9738C36.2871 45.3136 32.3528 47.3725 30.9221 44.4313C30.5319 43.5816 30.4994 42.6339 30.8571 41.7515C30.5644 41.3921 30.1417 40.477 31.2147 38.8757C31.2147 38.8757 32.8405 39.2352 33.7509 37.111C33.7509 37.111 35.3117 36.7515 35.6693 35.6404C35.4742 35.7711 34.4663 36.4901 33.7509 36.2613C33.1982 36.0326 32.5804 35.9999 31.9626 36.1306C31.5724 36.0326 30.9221 35.7058 30.6294 34.6274C30.5644 34.7254 30.2067 35.2156 30.3043 36.3594C30.3043 36.3594 30.5969 36.4901 31.3123 36.3594C30.8896 36.5881 30.5319 36.8823 30.2393 37.2417C28.9712 38.7777 28.6135 40.281 28.581 40.9019C28.4509 42.0457 28.6135 43.1894 29.1012 44.2352C29.0362 44.6927 29.0037 46.4901 30.4669 48.4836C30.4994 48.5489 30.5644 48.5816 30.5319 48.4509C30.2718 47.6012 30.1742 46.7189 30.2067 45.8038C31.2798 46.8496 32.5804 47.6993 33.9785 48.2548C34.0761 48.2875 34.1411 48.2875 34.0436 48.1894C33.6209 47.7973 33.3282 47.3071 33.1982 46.7515C40.0589 46.5881 50.919 36.3594 48.4153 22.928Z" fill="#5B5957" />
                            <path fill-rule="evenodd" clip-rule="evenodd" d="M31.9951 44.7908C34.1086 46.2613 39.181 44.1045 40.4491 37.8627C40.4491 37.83 40.4166 37.7973 40.4166 37.83C38.238 40.8692 33.9785 38.843 31.7675 41.1306C30.9221 41.9803 30.8896 44.0391 31.9951 44.7908Z" fill="#5B5957" />
                            <path fill-rule="evenodd" clip-rule="evenodd" d="M35.5393 14.3659C35.5068 14.6273 35.4742 14.8888 35.4742 15.1502C35.4742 15.1175 35.4742 15.3136 35.4742 15.4443C35.4742 15.477 35.5068 15.5097 35.5393 15.5097C35.5718 15.5097 35.6043 15.5097 35.6368 15.477C35.7018 15.379 35.7669 15.2483 35.7344 15.1175C35.7344 14.7907 35.7344 14.4966 35.7994 14.2025C36.2546 13.2875 37.3601 12.6339 37.3601 12.6339C39.9939 10.8038 39.9939 7.56852 39.8963 6.32669C39.8638 6.13061 39.8313 6.19597 39.8313 6.32669C39.7988 6.88225 39.246 7.928 37.3601 9.62735C35.019 11.7188 35.3117 13.6796 35.5393 14.3659Z" fill="#5B5957" />
                            <path fill-rule="evenodd" clip-rule="evenodd" d="M6.89325 15.9672C7.67362 17.2744 8.61656 17.3071 8.87669 17.3071C8.97423 17.3398 9.07178 17.3724 9.16933 17.3724C9.16933 17.3724 9.26687 17.3724 9.26687 17.3398C9.26687 17.3071 9.16933 17.2744 9.16933 17.2744C8.97423 17.2417 8.81166 17.1764 8.6816 17.0456C8.38896 16.5554 7.77117 12.5685 4.90982 13.8757C4.90982 13.8757 4.8773 13.8757 4.8773 13.9084C4.8773 13.9084 4.8773 13.9411 4.90982 13.9411C5.98282 14.1698 5.98282 14.4639 6.89325 15.9672Z" fill="#5B5957" />
                            <path fill-rule="evenodd" clip-rule="evenodd" d="M6.79571 19.3332C7.86871 20.3463 8.81166 20.477 9.36442 20.4443C9.59203 20.5097 9.85215 20.5097 10.0798 20.5097C10.2098 20.477 10.2423 20.4443 10.2423 20.4117C10.2423 20.2156 10.2423 20.0195 10.2423 19.8234C10.5675 19.2352 11.7055 19.0391 13.2663 17.2744C14.827 15.5097 13.4614 13.6796 13.1687 13.3202H13.1362C13.1362 13.3202 13.1362 13.3202 13.1037 13.3528C13.1687 14.9215 12.7785 15.0522 11.1202 16.8169C9.9497 18.0587 9.91718 19.1372 10.0147 19.66C9.98221 19.8561 9.98221 20.0522 9.98221 20.2809C9.78712 20.2809 9.59203 20.2156 9.42945 20.0849C8.97424 19.6273 8.64908 18.6143 7.18589 17.3071C5.46258 15.7711 3.47914 16.9803 3.12148 17.209M3.18651 17.2417C4.68221 17.1764 5.10491 17.7319 6.79571 19.3332L3.18651 17.2417Z" fill="#5B5957" />
                            <path fill-rule="evenodd" clip-rule="evenodd" d="M35.1491 10.5751C35.084 10.6731 35.019 10.8038 34.954 10.9019C34.7264 11.2287 34.7264 11.5228 34.8239 11.5882C34.9215 11.6535 35.019 11.5228 35.019 11.5228C35.3767 11.0326 35.7018 10.477 35.9294 9.92148C36.5798 9.33325 37.165 8.64697 37.6202 7.89534C38.6282 6.19599 38.2706 4.82345 38.173 4.52933H38.1405C38.1405 4.52933 38.1405 4.52933 38.108 4.52933C37.8804 5.379 36.9374 5.57508 36.1571 6.45743C35.1491 7.56854 34.7914 9.10449 35.1491 10.5751Z" fill="#5B5957" />
                            <path fill-rule="evenodd" clip-rule="evenodd" d="M30.5644 7.7973C30.792 7.89534 31.0196 7.99338 31.2472 8.05874C31.2798 8.05874 31.3123 8.05874 31.3448 8.02606C31.3773 7.99338 31.3773 7.9607 31.3773 7.92802C31.3773 7.92802 31.3773 7.92802 31.3448 7.92802C31.0847 7.86266 30.8571 7.7973 30.6294 7.66658C30.2393 7.3071 29.8816 5.73848 29.8491 4.43129C29.8166 3.58161 29.6215 2.69926 29.2638 1.91495H29.2313C29.2313 1.91495 29.1988 1.91495 29.1988 1.94763C29.0687 3.25482 27.3779 4.30057 28.6135 6.55547C29.1012 7.20906 29.7841 7.66658 30.5644 7.7973Z" fill="#5B5957" />
                            <path fill-rule="evenodd" clip-rule="evenodd" d="M14.9896 9.16985C15.2172 9.30057 15.4123 9.49664 15.5748 9.69272C15.6399 10.0195 15.7049 10.3463 15.7374 10.6731C15.7374 10.7385 15.7699 10.8038 15.835 10.8365C15.8675 10.8692 15.9 10.8692 15.965 10.8692C16.0626 10.8692 16.0301 10.7058 16.0301 10.7058C15.9975 10.4117 15.965 10.1502 15.9 9.85612C15.9 8.74501 15.6399 6.19599 13.9166 4.7254C13.884 4.8888 13.5914 6.26135 13.754 6.94763C13.884 7.76462 14.2092 8.67965 14.9896 9.16985Z" fill="#5B5957" />
                            <path fill-rule="evenodd" clip-rule="evenodd" d="M10.2748 15.2809C10.4699 15.6731 10.7301 16.0326 11.0877 16.2613C11.1528 16.294 11.2178 16.2613 11.2503 16.2286C11.2828 16.1633 11.2503 16.0979 11.2178 16.0652C10.9252 15.8365 10.665 15.5424 10.5025 15.1829C12.5509 14.2352 10.5675 11.0326 10.0147 9.92146C9.68957 9.39858 9.65706 8.74499 9.9497 8.18943C9.98221 8.12407 9.91718 8.12407 9.88466 8.15675C6.9908 9.43126 7.21841 11.6535 7.57608 12.928C7.80368 13.8103 8.81166 15.8692 10.2748 15.2809Z" fill="#5B5957" />
                            <path fill-rule="evenodd" clip-rule="evenodd" d="M27.0853 25.7058C27.0202 26.0979 26.9552 26.8496 26.9552 27.013C27.8656 26.3921 28.516 25.477 28.8086 24.464C29.1337 23.5162 28.9712 20.7385 28.3209 19.8561C28.0282 20.9999 27.6055 22.0783 27.0853 23.1241C26.565 24.0064 26.4025 25.0195 26.565 26.0326C26.565 26.0653 26.5975 26.0653 26.5975 26.0326C26.7276 25.2156 26.9877 24.3986 27.3779 23.6796C27.8006 22.9607 28.0933 22.1764 28.2558 21.3594C28.1583 22.4051 27.8982 23.4509 27.4755 24.3986C27.2804 24.7907 27.1828 25.2483 27.0853 25.7058Z" fill="#5B5957" />
                            <path fill-rule="evenodd" clip-rule="evenodd" d="M21.4601 14.9215C23.7362 11.294 21.0374 9.95414 21.135 7.66656C21.135 7.63388 21.135 7.56852 21.0699 7.66656C19.5092 11.6208 20.4847 12.5358 20.8748 14.9215C20.9074 15.1502 20.9399 15.3463 20.9399 15.5751C21.3626 13.1241 21.5577 13.7777 21.2 9.92146C22.0129 12.0456 21.7528 13.3202 21.4601 14.9215Z" fill="#5B5957" />
                            <path fill-rule="evenodd" clip-rule="evenodd" d="M28.4834 7.89532C28.516 7.86264 28.5159 7.86264 28.5159 7.86264C27.8331 7.33976 26.6301 5.77113 26.7276 4.16983C26.8252 2.66656 26.7926 2.47048 26.7601 2.47048C26.7276 2.47048 26.8902 2.53584 26.8252 4.20251C26.7926 4.82342 26.9227 5.41166 27.2153 5.93453C27.1178 5.57505 27.0853 5.21558 27.1503 4.82342C27.3454 2.92799 26.8577 1.68616 26.5975 1.52277H26.565C26.565 1.52277 26.565 1.52277 26.565 1.55545C26.6626 2.50316 26.565 3.48355 26.2724 4.39858C25.7196 5.93453 25.9472 7.7646 28.4834 7.89532Z" fill="#5B5957" />
                            <path fill-rule="evenodd" clip-rule="evenodd" d="M3.70675 20.2483C4.51963 19.8234 5.43006 19.6927 6.34049 19.8561C6.34049 19.8561 6.34049 19.8561 6.34049 19.8234C4.55215 18.5162 2.24356 20.4443 2.24356 20.4443C2.24356 20.4443 4.51963 18.1894 6.34049 19.7581M6.37301 19.7581C4.0319 17.0783 2.5362 20.379 1.6908 20.477C0.975461 20.5751 2.37362 20.9345 3.67423 20.2483L6.37301 19.7581Z" fill="#5B5957" />
                            <path fill-rule="evenodd" clip-rule="evenodd" d="M13.9491 13.5163C13.9816 12.9934 13.8515 12.111 12.8436 11.0326C10.8276 8.81037 11.3479 7.3071 11.3804 7.24174L11.4454 7.11102C11.4454 7.11102 10.8276 8.58161 12.9736 10.9019C13.9816 11.9149 14.1767 12.7973 14.1767 13.3855C15.2822 10.0522 11.608 8.05874 11.4454 6.71887C11.4454 6.71887 11.4454 6.68619 11.4129 6.68619H11.3804C10.6975 7.92802 10.8276 9.46397 11.7055 10.5751C13.2012 12.4705 13.2663 12.1437 13.9491 13.5163Z" fill="#5B5957" />
                            <path fill-rule="evenodd" clip-rule="evenodd" d="M31.8975 8.54891C32.1902 7.7646 32.1252 6.88225 31.735 6.13061C30.9546 4.59467 31.2472 3.54891 31.4423 3.12408C31.5074 2.99336 31.5074 2.99336 31.4748 3.12408C31.3448 3.51623 31.1497 4.46395 31.9301 5.96721C32.3853 6.75153 32.4828 7.69924 32.1902 8.54891C34.1736 6.65349 31.4423 3.77767 31.6374 2.66656V2.63388H31.6049C29.719 5.21558 31.9626 7.20904 31.8975 8.54891Z" fill="#5B5957" />
                            <path fill-rule="evenodd" clip-rule="evenodd" d="M19.6068 13.6143C19.8669 14.464 20.0295 15.3463 20.062 16.2287C19.9969 16.1633 19.9319 16.0653 19.8669 15.9999C19.5092 14.1045 17.4607 12.5032 15.6724 11.294C15.2822 10.9999 14.9896 10.5424 14.9245 10.0522C14.892 9.95415 14.8595 10.0195 14.8595 10.0849C14.5669 12.0457 15.1521 14.4313 16.8755 15.0849C18.2086 15.6077 19.2491 16.0326 19.7043 16.2287C20.7773 17.3071 20.6798 17.6012 20.9399 17.9607C20.9724 17.9934 21.0049 17.9934 21.0049 17.9934C21.0049 17.9934 21.0699 17.9607 21.0374 17.928C20.9399 17.4705 20.7123 17.013 20.4196 16.6535C20.3546 15.5097 20.127 14.3986 19.7693 13.3202C20.0945 11.3921 19.2166 8.84304 17.5258 7.04566C16.908 6.35938 16.6479 5.11755 16.6153 4.88879C15.6399 6.6535 16.2902 9.95415 17.6558 11.2613C18.3712 12.013 19.054 12.7973 19.6068 13.6143Z" fill="#5B5957" />
                            <path fill-rule="evenodd" clip-rule="evenodd" d="M46.3669 16.1633C46.3344 16.1306 46.3018 16.1306 46.3343 16.196C46.4319 16.7842 46.2043 17.4051 45.7166 17.7646C44.8386 18.6143 42.2374 20.1176 43.9932 22.2091L44.0258 22.2417C43.8632 22.5032 43.6681 22.6993 43.4405 22.8627C43.3755 22.8953 43.3755 22.9934 43.408 23.0587C43.4405 23.1241 43.538 23.1241 43.6031 23.0914C43.8632 22.8953 44.0908 22.6666 44.2534 22.4051C45.5215 23.2548 46.627 21.8169 47.0497 21.196C47.6675 20.1502 48.4804 18.2548 46.3669 16.1633Z" fill="#5B5957" />
                            <path fill-rule="evenodd" clip-rule="evenodd" d="M36.1245 2.79728C36.1245 2.7646 36.1245 2.7646 36.1245 2.79728C35.7994 2.89532 33.0681 3.97375 33.6859 6.58813C33.8485 7.111 33.7834 7.66656 33.4908 8.09139C33.3607 8.38551 36.3522 5.83649 36.1245 2.79728Z" fill="#5B5957" />
                            <path fill-rule="evenodd" clip-rule="evenodd" d="M35.2791 17.6339C35.1491 17.7973 34.9865 17.928 34.8239 18.0914C34.8239 18.0914 34.6288 18.2548 34.7589 18.3529C34.889 18.4509 35.019 18.2875 35.019 18.2875C35.1816 18.1568 35.3117 17.9934 35.4417 17.8627C35.8319 17.8627 36.8724 17.6339 38.0755 16.0326C39.4411 14.2352 39.9939 11.7189 40.1239 11.196C40.1239 11.1306 40.1239 11.1306 40.0589 11.1633C39.8313 11.3594 39.0834 11.9803 38.8558 12.2091C38.4331 12.5685 35.4417 14.3332 35.2791 17.6339Z" fill="#5B5957" />
                            <path fill-rule="evenodd" clip-rule="evenodd" d="M17.916 16.8823C18.8589 17.2744 19.184 17.6992 19.7043 18.5816C20.0945 19.2679 21.7528 23.1894 21.9479 23.5162C21.6877 21.9476 21.265 20.2483 21.265 20.2483C20.4521 16.9803 17.1681 16.5881 17.1681 16.5881C18.6638 17.6339 19.0865 19.5293 19.5417 21.6208C19.9319 23.4182 21.5577 23.8757 22.0129 23.9738C20.5497 21.9476 20.0294 18.0914 17.916 16.8823C17.7859 16.8496 17.6558 16.7515 17.916 16.8823Z" fill="#5B5957" />
                            <path fill-rule="evenodd" clip-rule="evenodd" d="M4.06442 31.294C4.77976 31.2613 5.49509 31.1306 6.17792 30.9019C6.82822 30.6731 7.4135 30.3463 7.93374 29.9215C7.93374 29.9215 6.5681 29.5947 5.78773 30.0849C5.00736 30.5751 3.31657 31.2287 2.66626 31.1306C2.63374 31.1306 2.5362 31.0979 2.66626 31.196C3.3816 31.5555 6.9908 32.8953 8.06381 30.0195C7.51104 30.4443 6.89325 30.8038 6.24295 31.0326C5.56012 31.2613 4.81227 31.3594 4.06442 31.294Z" fill="#5B5957" />
                            <path fill-rule="evenodd" clip-rule="evenodd" d="M23.281 49.3332C27.4104 46.4247 27.7681 36.5554 27.8982 35.9345C28.0282 35.2483 28.3859 32.111 33.9135 31.7188C34.1411 31.7188 36.2221 31.7515 37.3601 32.9607C37.0675 32.7646 36.6773 32.7319 36.3521 32.8953C36.6448 32.928 36.9374 33.026 37.165 33.2221C37.165 33.2221 36.1896 33.9411 36.9374 35.1502C37.8479 36.6535 39.116 35.7711 39.116 35.7711C39.1485 35.9345 39.6362 36.0979 39.4736 35.9345C39.3761 35.8365 39.311 35.7058 39.3436 35.5751C39.4736 35.7058 39.6037 35.8365 39.6687 35.7711C39.5712 35.6731 39.5387 35.5097 39.6362 35.379C40.0914 34.9868 40.8067 34.2679 39.9939 33.1241C39.116 31.8496 38.108 32.5032 38.108 32.5032C37.7178 32.3398 37.5552 31.6535 37.5227 31.5554H37.4902C37.3276 31.6862 37.6528 32.7319 37.6528 32.7319C37.4577 32.6012 37.2951 32.4378 37.1975 32.2417C37.1325 32.3398 37.1975 32.5685 37.2626 32.7319C36.6123 32.1764 35.8319 31.7515 34.9865 31.5554C35.6368 31.3594 36.2871 31.1306 36.9049 30.8365C38.8233 30.3136 40.254 29.9868 41.4896 28.6143C41.4571 28.7123 40.6767 30.2809 36.9699 31.1633C40.6117 32.8953 42.4325 27.2744 42.1399 27.8626C41.8472 28.4509 39.7337 29.2352 38.6933 29.4313C37.9129 29.5947 37.1975 30.4443 36.9374 30.7711C34.3362 31.9476 29.2963 30.7058 27.7356 35.0195C28.1258 33.3855 29.589 32.013 30.9546 31.0326C35.2466 31.6208 38.0755 28.0914 38.3031 27.7973C34.889 27.4051 31.9951 29.3659 30.8896 31.0326C29.8491 31.5881 28.8736 32.3071 28.0607 33.1568C28.0607 33.1568 28.3859 31.3594 31.0196 29.8561C32.1902 29.3005 33.2632 28.5489 34.2387 27.6339C34.4012 27.5685 36.1571 26.7515 37.035 26.4574C38.2706 26.6208 38.5957 27.1764 40.2865 27.0456C43.2129 26.8169 44.1883 24.2679 43.8632 24.562C43.538 24.8561 42.5626 25.0195 40.4166 25.1175C39.2785 25.1502 38.173 25.5097 37.2301 26.1633C36.3521 26.4247 35.5393 26.7515 34.6939 27.111C35.2141 26.4574 35.6043 25.7058 35.7669 24.8888C36.4822 23.9737 37.4252 23.3202 38.5307 22.9607C37.4902 23.3855 36.7098 24.2352 35.9294 25.1502C37.9779 23.9411 41.262 24.4639 42.465 21.3594C42.4975 21.2613 42.5301 21.1633 42.5301 21.1633C42.6276 20.9019 42.5626 20.9672 42.465 21.0979C41.4571 22.1764 37.7178 20.7058 36.0595 24.0718C36.1896 23.6796 36.8724 21.9149 37.1975 21.6862C39.2785 20.1502 44.7411 21.0653 45.0988 15.5751C45.0988 15.477 45.0663 15.5097 45.0337 15.5751C44.7086 16.0653 42.8227 17.1437 39.5712 18.4836C38.2706 19.0391 37.4902 20.4443 37.3276 20.8038C36.6448 21.7515 35.962 23.5162 35.5718 24.66C35.4092 25.379 35.084 26.0326 34.6939 26.6535C32.6779 29.4966 28.6785 30.0849 27.8656 32.6339C27.8656 32.1764 27.8656 31.6862 27.9307 31.2287C28.1258 30.7385 28.4834 30.2809 28.9061 29.9541C29.1337 29.8561 29.654 29.6273 30.6945 29.1698C32.1577 28.5816 34.3362 26.7188 35.3117 23.2221C35.3442 23.1241 33.5883 24.562 32.2877 25.2483C30.9546 25.9672 29.8816 26.8169 29.0037 29.3986C28.646 29.7254 28.3534 30.0849 28.0607 30.477C28.3209 28.7777 29.0687 26.4574 31.0521 24.8888C31.1497 24.8234 31.2798 24.7254 31.3773 24.6273C33.5883 23.745 34.5963 23.2875 35.7344 22.209C37.1325 20.8365 37.1 18.4836 37.1 18.4836C33.6209 19.5293 32.5479 22.6992 31.4098 24.3986C29.4589 25.477 27.638 28.3202 27.0853 30.6404C27.0853 30.6404 27.0202 30.4117 26.9877 30.0195C28.2883 25.8365 29.8816 25.0849 30.6945 23.3528C33.0356 20.0522 31.3773 17.6992 31.9301 15.5424C31.9301 15.5424 29.5239 17.1764 29.2638 19.0391C29.0037 20.9019 30.3368 22.9607 29.9791 23.9084C29.3939 24.66 27.4104 27.1764 26.8577 29.3332C26.6951 28.3202 26.5975 27.2744 26.5975 26.2287C26.5975 26.1306 26.565 26.0979 26.565 26.2287C26.0123 29.66 26.7926 31.1633 26.7276 36.0979C26.6626 31.5228 25.7196 28.8104 25.8822 26.5228C25.9798 25.2156 27.0528 21.4574 27.1503 20.8038C27.1828 20.6404 27.2479 20.3136 27.3129 19.8234V19.7907C29.8816 16.7188 26.2074 12.928 25.362 12.1437C25.2644 12.0456 25.2644 12.111 25.2969 12.209C26.0448 13.7123 25.1344 16.9149 26.0123 18.7123C26.2724 19.3659 26.5975 19.9868 26.9552 20.6077C26.9227 20.6731 26.9227 20.7385 26.8902 20.8038C26.0123 24.2352 25.3294 26.196 25.2319 28.4509C24.9393 27.928 24.7117 27.3398 24.5491 26.7515C24.6141 26.0653 24.8092 25.4117 25.0693 24.7907C25.492 23.6796 26.6626 22.2417 25.9472 19.9541C25.3295 17.8626 24.7117 17.928 24.7117 17.928C24.7117 17.928 25.2644 18.3855 24.0939 20.7385C22.8583 23.1894 24.4515 28.0914 25.2319 28.843C25.1669 31.0979 26.0773 34.3659 25.6546 38.9084C25.8497 36.2287 25.6871 33.5816 25.1669 30.9672C24.8742 29.4313 23.5411 27.2744 23.0859 24.562C22.8258 23.0587 22.7607 21.4901 22.9558 19.9868C23.1509 19.3659 23.5411 18.2548 24.2239 16.4901C25.1344 14.1698 24.0614 11.6535 23.7687 10.9999C23.7037 10.9019 23.7037 10.9345 23.7037 10.9999C23.8012 12.111 23.1509 13.6143 22.0454 15.9019C20.9399 18.1894 22.3706 20.7711 22.5331 21.0326C22.5006 21.7842 22.5006 22.5358 22.5982 23.2875C22.7933 26.0653 23.8988 28.8757 23.9638 29.1698C24.0288 29.66 27.508 41.1306 20.9399 48.9411C21.6552 49.1371 22.4356 49.2352 23.281 49.3332Z" fill="#5B5957" />
                            <path fill-rule="evenodd" clip-rule="evenodd" d="M29.4914 15.6078C29.1988 16.2287 29.0037 16.8496 28.8736 17.5359C28.8736 17.5032 28.8736 17.6012 28.8736 17.6012L28.9386 17.6993L29.0362 17.6666C29.0687 17.6666 29.1012 17.6339 29.1337 17.5032C29.2313 16.8496 29.4264 16.196 29.719 15.6078C30.2067 15.2156 31.3773 15.2156 33.1006 13.745C34.4337 12.6012 34.4337 10.9999 34.3037 10.0195C34.2712 9.85613 34.1411 9.39861 34.1086 9.20253C34.0761 9.13717 34.0436 9.16985 34.0436 9.20253C33.1982 10.8038 32.8405 10.6731 31.0521 12.0457C29.589 13.1895 29.4589 14.9215 29.4914 15.6078Z" fill="#5B5957" />
                            <path fill-rule="evenodd" clip-rule="evenodd" d="M7.90123 21.5228C8.09632 21.4901 8.32393 21.4901 8.51902 21.4574C8.51902 21.4574 8.71411 21.4574 8.71411 21.3267C8.71411 21.196 8.55153 21.2613 8.55153 21.2613C8.38896 21.2613 8.22638 21.2613 8.0638 21.294C3.41411 18.7123 1.98344 23.0587 0.747854 23.0587C0.0325161 23.0587 4.29202 24.7581 7.90123 21.5228Z" fill="#5B5957" />
                            <path fill-rule="evenodd" clip-rule="evenodd" d="M23.8663 30.9018C23.346 28.9084 23.3135 28.5489 22.7282 27.6992C22.4031 26.5554 22.208 25.7385 21.7202 25.1175C21.2975 24.5293 20.7123 24.0718 20.0294 23.8103C19.7693 23.6143 19.4767 23.3855 19.184 23.1241C19.184 23.1241 18.989 21.392 18.0135 20.3463C17.4282 19.6927 17.038 18.8757 16.908 18.026C16.3227 18.6143 15.9975 21.6862 18.8589 22.9934C19.119 23.2548 19.3791 23.4835 19.6718 23.7123C18.5663 23.4182 18.3386 23.7777 16.7454 22.4378C16.6804 22.3724 16.6804 22.4051 16.6804 22.4705C17.981 26.196 21.8503 25.6077 22.7607 28.5162C21.1025 27.8626 19.3466 27.4378 17.5583 27.2417C17.5258 27.111 17.4933 27.013 17.4607 26.8822C17.981 24.4313 15.3472 22.3398 14.8595 21.9803C14.7945 21.9476 14.7945 22.013 14.827 22.0456C15.4448 23.5162 14.827 24.0391 15.8025 25.5424C15.4773 25.379 14.762 25.1175 14.762 25.0849C13.0712 22.8953 9.72209 23.5489 10.2423 23.6796C11.0227 23.843 13.1037 26.9803 14.9245 25.2483C15.2822 25.379 15.6399 25.5751 15.9975 25.7711C16.3552 26.2613 16.8104 26.6535 17.2982 26.9803C17.3307 27.0783 17.3632 27.1437 17.3632 27.209C16.5503 27.1437 15.7374 27.1764 14.9571 27.2744C14.6969 27.0783 14.4368 26.9476 14.1767 26.8169C13.9816 26.4247 12.7785 25.5424 11.2503 25.5424C11.1853 25.4443 11.0877 25.3463 10.9902 25.2483C10.535 24.7254 8.55153 23.8103 6.40552 24.1371C5.56012 23.8757 4.68221 24.0718 3.99939 24.5947C2.5362 25.7384 3.3816 26.8496 1.85337 27.5685M1.85337 27.5685C2.01595 27.6012 2.60123 27.7319 3.90184 27.2744C5.33252 26.7842 5.56012 25.0195 6.30798 24.4639C6.27546 24.4639 6.24295 24.4966 6.17791 24.4966C5.00736 24.9868 4.8773 25.3136 3.93436 26.196C2.66626 27.4705 2.24356 27.4705 2.24356 27.4705C2.24356 27.4705 2.7638 27.3398 4.68221 25.1829C5.10491 24.7254 5.65767 24.3659 6.27546 24.2025C7.4135 24.1698 8.55153 24.3659 9.59202 24.7907C9.13681 24.8561 8.71411 24.9868 8.32393 25.2156C6.17792 26.392 6.11288 28.7777 3.90184 29.2679C5.07239 29.4966 6.27546 29.3986 7.38098 28.9411C9.00675 28.3202 9.55951 26.5228 10.4699 25.9018C11.5429 25.7058 12.6485 25.9672 13.4939 26.6535C12.811 26.5554 12.1282 26.6862 11.5104 27.0456C9.3319 28.2221 10.3399 29.9868 8.09632 30.4443C8.29141 30.5424 9.29939 30.9999 11.1528 30.3136C12.811 29.6927 13.4288 28.1241 14.4043 27.6339C15.2822 27.4705 16.1926 27.4378 17.0706 27.5032C16.2902 28.1568 15.6074 28.8757 15.0546 29.7254C14.1117 29.2025 13.2012 29.9215 12.4859 30.8038C12.1607 31.2613 11.6405 31.5228 11.0877 31.5228C11.4454 32.111 11.8681 32.2417 12.2583 32.209C12.0957 32.4705 11.9656 32.7646 11.8681 33.0587C12.1933 33.026 12.4859 32.928 12.746 32.7646C12.6485 33.026 12.5834 33.3202 12.5834 33.6143C12.9086 33.5162 13.2012 33.3201 13.4288 33.0587C13.3963 33.3855 13.4288 33.7123 13.4939 34.0064C13.7215 33.843 13.9166 33.6143 14.0791 33.3855C14.1442 33.9411 14.4368 34.3332 14.8595 34.4313C14.9896 34.4639 14.9245 34.3986 14.892 34.3659C14.5018 33.843 14.892 33.5162 15.2172 32.7646C15.6074 31.8496 16.1926 30.5424 15.1196 29.8234C15.7699 28.9411 16.5503 28.1894 17.4607 27.5685C18.9239 27.6992 21.3951 28.1894 22.6632 29.8234C22.7933 30.0195 22.8583 30.2156 22.9233 30.4117C26.2724 41.9476 19.8344 48.7777 19.8344 48.7777L20.4521 48.9084C22.6307 47.0783 26.1748 39.8234 23.8663 30.9672L1.85337 27.5685Z" fill="#5B5957" />
                            <path fill-rule="evenodd" clip-rule="evenodd" d="M32.7755 19.8234C32.873 19.8888 32.938 19.7254 32.938 19.7254C33.0681 19.5293 33.1656 19.3332 33.2632 19.1045C36.2546 16.3921 34.7589 12.928 34.7589 12.928C34.5313 13.9411 34.011 14.2352 33.0356 15.8692C32.1902 17.3398 32.808 18.9738 32.938 19.3006C32.873 19.3986 32.808 19.5293 32.7755 19.6274C32.7755 19.5947 32.6779 19.7581 32.7755 19.8234Z" fill="#5B5957" />
                            <path fill-rule="evenodd" clip-rule="evenodd" d="M22.3055 8.35284C22.338 8.38552 22.338 8.38552 22.338 8.38552C22.5331 8.15676 22.4031 8.02605 22.338 7.50317C22.6307 6.8169 26.1748 5.70578 24.5491 1.39206C24.5491 1.39206 24.5491 1.39206 24.5166 1.39206H24.4841C23.6061 4.49663 21.3951 4.56199 22.1429 7.27441C22.208 7.63389 22.2405 7.99337 22.3055 8.35284Z" fill="#5B5957" />
                            <path fill-rule="evenodd" clip-rule="evenodd" d="M18.6963 8.12408C18.7288 8.12408 18.7288 8.12408 18.6963 8.12408C18.7288 8.12408 18.7614 8.12408 18.7614 8.0914C18.7614 8.05872 18.7614 8.05872 18.7614 8.02604C18.7614 7.96068 18.7288 7.89532 18.6963 7.86264C18.5337 7.66656 18.4037 7.4378 18.3061 7.17636C18.4362 6.45741 19.6068 4.5293 18.8914 3.0914C18.4037 2.14368 18.2411 1.98029 18.2086 1.98029C18.0135 2.7646 17.7534 3.54891 17.4282 4.30055C16.908 5.5097 17.916 6.88225 18.2411 7.24172C18.3387 7.53584 18.5012 7.86264 18.6963 8.12408Z" fill="#5B5957" />
                            <path fill-rule="evenodd" clip-rule="evenodd" d="M38.5307 17.4705C38.3356 17.6992 38.173 17.9607 38.0429 18.2548C38.0429 18.2221 38.0104 18.3202 38.0104 18.3202V18.4182L38.108 18.4509C38.173 18.4509 38.2055 18.4182 38.238 18.3855C38.3681 18.0914 38.5307 17.83 38.7583 17.5685C39.2785 17.3071 39.6687 16.9476 40.7742 16.8169C41.8147 16.6862 43.1153 16.7515 44.3509 15.0849C45.2613 13.8104 45.3589 13.2548 45.3589 13.026C45.3589 12.9607 45.3264 12.9607 45.2939 12.9934C45.0988 13.2221 44.3834 13.9411 42.465 14.2025C40.4166 14.4639 38.8558 16.7515 38.5307 17.4705Z" fill="#5B5957" />
                            <path fill-rule="evenodd" clip-rule="evenodd" d="M19.8018 9.49664C19.8018 9.52932 19.8018 9.52932 19.8018 9.49664C19.8344 9.52932 19.8344 9.52932 19.8669 9.49664C19.9969 9.30056 19.8669 9.03913 19.8344 8.81037C19.9644 8.18945 20.6798 7.24174 21.5902 5.64043C22.5006 4.03913 21.4601 2.17638 21.2325 1.88226H21.2C21.2 1.88226 21.1675 1.88226 21.1675 1.91494C20.7448 4.7254 18.2736 4.66004 19.4767 8.41821C19.5742 8.77769 19.6718 9.13717 19.8018 9.49664Z" fill="#5B5957" />
                            <path fill-rule="evenodd" clip-rule="evenodd" d="M40.5791 13.0914C40.3515 13.5162 40.1239 13.9411 39.8313 14.3332C39.7988 14.3659 39.7988 14.3659 39.7988 14.3986V14.4966C39.7988 14.5293 39.7988 14.562 39.8313 14.562C39.8638 14.562 39.8963 14.562 39.8963 14.5293C40.1564 14.2025 40.5466 13.5489 40.7417 13.1894C41.5871 13.7777 42.5301 13.1894 43.3104 12.4051C43.6681 12.013 44.1883 11.8169 44.7086 11.8822C44.7086 11.8822 44.7086 11.8822 44.7411 11.8822C44.7411 11.8822 44.7411 11.8823 44.7411 11.8496C44.4485 11.2613 44.0583 11.0979 43.7006 11.0979C43.8957 10.8692 44.0258 10.6404 44.1558 10.379C44.1558 10.379 44.1558 10.379 44.1558 10.3463C44.1558 10.3463 44.1558 10.3463 44.1233 10.3463C43.8307 10.3463 43.538 10.4117 43.2779 10.5424C43.408 10.2809 43.473 10.0522 43.538 9.75807C43.538 9.75807 43.538 9.75807 43.538 9.72539C43.538 9.72539 43.538 9.72539 43.5055 9.72539C43.1804 9.79075 42.8877 9.95415 42.6601 10.1829C42.7252 9.88879 42.7252 9.56199 42.6926 9.26787H42.6601C42.4 9.39859 42.2049 9.59467 42.0423 9.82343C42.0423 9.26787 41.8147 8.84303 41.4245 8.745C41.392 8.745 41.392 8.74499 41.392 8.77767C41.7172 9.33323 41.262 9.66003 40.9043 10.379C40.5466 11.0979 39.7337 12.3071 40.5791 13.0914Z" fill="#5B5957" />
                            <path fill-rule="evenodd" clip-rule="evenodd" d="M70.5258 11.7188C70.1681 11.7188 69.908 12.013 69.908 12.3398C69.908 12.6666 70.2006 12.9607 70.5258 12.9934C70.8834 12.9934 71.1436 12.6992 71.1436 12.3724C71.1436 12.3071 71.1436 12.2417 71.111 12.209C71.046 11.9149 70.7859 11.7188 70.5258 11.7188ZM93.2865 11.7515C93.1564 11.7188 92.9939 11.7188 92.8638 11.7188C92.311 11.7188 92.0509 11.9149 92.0509 12.4051V18.026C92.2135 18.0587 92.3761 18.0587 92.5387 18.0587C93.0589 18.0587 93.319 17.83 93.319 17.3724V11.7515H93.2865ZM72.0865 18.026C72.2491 18.0587 72.4117 18.0587 72.5742 18.0587C73.0945 18.0587 73.3546 17.83 73.3546 17.3724V15.1502C73.3546 14.66 74.0699 14.3332 74.7202 14.8561C74.8828 14.5947 75.0129 14.2679 75.0454 13.9411C75.0454 13.4182 73.9724 13.1894 73.3221 14.0391C73.192 13.5489 72.6067 13.5162 72.119 13.6143L72.0865 18.026ZM85.2877 15.6404C85.3202 15.3463 85.2877 15.0849 85.2227 14.7907C85.0276 14.2679 83.9221 14.4313 83.9221 14.9541V17.3398C83.9221 17.7973 83.662 18.026 83.1417 18.026C82.9791 18.026 82.8166 18.026 82.654 17.9934V15.6077C82.6865 15.3136 82.654 15.0522 82.589 14.7581C82.3939 14.2352 81.2558 14.3986 81.2558 14.9215V17.3071C81.2558 17.7646 80.9957 17.9934 80.4755 17.9934C80.3129 17.9934 80.1503 17.9934 79.9877 17.9607V13.5816C80.508 13.5162 81.0607 13.5162 81.1583 14.0064C81.646 13.2875 83.3693 13.1241 83.6945 14.2025C84.0196 13.6469 84.6699 13.3528 85.2877 13.4509C86.3607 13.5489 86.4583 14.4313 86.4908 15.5097V17.3398C86.4908 17.7973 86.2307 18.026 85.7104 18.026C85.5479 18.026 85.3853 18.026 85.2227 17.9934L85.2877 15.6404ZM71.1436 17.3724C71.1436 17.83 70.8834 18.0587 70.3632 18.0587C70.2006 18.0587 70.038 18.0587 69.8755 18.026V14.2679C69.8755 13.8103 70.1356 13.5816 70.6558 13.5816C70.8184 13.5816 70.981 13.5816 71.1436 13.6143V17.3724ZM66.2012 14.8561V12.6339C67.0791 12.5685 67.8595 12.6992 67.8595 13.6469C67.892 14.8561 67.0791 14.8561 66.2012 14.8561ZM66.6239 11.7188H64.9656V18.026C65.1282 18.0587 65.2908 18.0587 65.4534 18.0587C65.9736 18.0587 66.2337 17.83 66.2337 17.3724V15.8038H66.689C68.1196 15.8038 69.1601 15.1829 69.1601 13.6469C69.1601 12.1764 67.9571 11.7188 66.6239 11.7188ZM77.8742 16.8822C77.6466 17.111 77.354 17.2417 77.0288 17.2417C76.2485 17.2417 76.216 16.3594 76.6712 16.0652C77.0288 15.8692 77.4515 15.8038 77.8742 15.8038V16.8822ZM79.0773 15.1502C79.0773 13.9084 78.492 13.4509 77.2564 13.4509C76.346 13.4509 75.4681 13.7777 75.4681 14.1371C75.5006 14.3659 75.5982 14.5947 75.7607 14.7581C76.1509 14.4966 76.6061 14.3332 77.0613 14.3332C77.8417 14.3332 77.8417 14.6927 77.8417 15.1502C76.5411 15.1502 75.1755 15.4117 75.1755 16.7188C75.1755 17.5685 75.6957 18.0914 76.5736 18.0914C77.0613 18.0914 77.5491 17.928 77.9068 17.6012C78.0693 18.1241 78.8172 18.0587 79.2074 17.8626C79.0448 17.6339 79.0123 17.3724 79.0123 16.8169L79.0773 15.1502ZM89.9049 16.8822C89.6773 17.111 89.3847 17.2417 89.0595 17.2417C88.2791 17.2417 88.2466 16.3594 88.7018 16.0652C89.0595 15.8692 89.4822 15.8038 89.9049 15.8038V16.8822ZM91.0755 15.1502C91.0755 13.9084 90.4902 13.4509 89.2871 13.4509C88.3767 13.4509 87.4988 13.7777 87.4988 14.1371C87.5313 14.3659 87.6288 14.5947 87.7914 14.7581C88.1816 14.4966 88.6368 14.3659 89.092 14.3332C89.8724 14.3332 89.9049 14.6927 89.9049 15.1502C88.6043 15.1502 87.2386 15.4117 87.2386 16.7188C87.2386 17.5685 87.7589 18.0914 88.6368 18.0914C89.1245 18.0914 89.6123 17.928 89.9699 17.6012C90.1325 18.1241 90.8804 18.0587 91.2706 17.8626C91.108 17.5358 91.0429 17.1764 91.0755 16.8169V15.1502Z" fill="#5B5957" />
                            <path fill-rule="evenodd" clip-rule="evenodd" d="M53.9429 29.1698C54.5607 29.1698 55.0485 28.6796 55.0485 28.0587V24.1045C55.0485 23.9737 55.081 23.9084 55.1785 23.8757C55.7638 23.745 56.3491 23.6469 56.9669 23.6143C57.7147 23.5489 58.1049 23.1894 58.1049 22.6339C58.1049 22.0456 57.6497 21.5881 57.0644 21.5881C57.0319 21.5881 56.9994 21.5881 56.9669 21.5881C56.3491 21.6535 55.7313 21.8496 55.1785 22.209L54.9509 22.3398C54.7883 21.9149 54.3656 21.6535 53.9104 21.6535C53.2926 21.6535 52.8049 22.1437 52.8049 22.7646V28.0587C52.8049 28.6469 53.3252 29.1698 53.9429 29.1698ZM62.1368 29.2352C62.9822 29.2679 63.8601 29.0391 64.608 28.6469C65.1607 28.3201 65.3558 27.9607 65.3558 27.6339C65.3883 27.1764 65.0632 26.8169 64.608 26.7515C64.5755 26.7515 64.5429 26.7515 64.5429 26.7515C63.9902 26.7515 63.2423 27.2744 62.2994 27.2744C61.2589 27.2744 60.6736 26.7842 60.5436 26.0652H64.7055C65.3233 26.0652 65.616 25.7384 65.616 25.1175C65.616 23.1567 64.0552 21.5554 62.0718 21.5228C62.0393 21.5228 62.0068 21.5228 62.0068 21.5228C59.9258 21.5228 58.2675 23.0914 58.2675 25.379C58.235 26.4247 58.6252 27.4378 59.373 28.1894C60.0233 28.8757 60.9012 29.2352 62.1368 29.2352ZM60.511 24.5947C60.6086 23.8757 61.2589 23.3528 62.0068 23.3855C62.7221 23.3528 63.3724 23.8757 63.4374 24.5947H60.511ZM69.8755 29.1698C70.7534 29.1698 71.2411 28.5816 71.6638 27.6992L73.3871 23.6796C73.5497 23.3855 73.6798 23.026 73.7123 22.6666C73.7123 22.111 73.2571 21.6535 72.6718 21.6535C72.6393 21.6535 72.6393 21.6535 72.6068 21.6535C72.0865 21.6535 71.7614 21.9803 71.5012 22.6339L70.7209 24.5293C70.3957 25.3136 70.1356 26.0979 69.908 26.9149C69.6804 26.0979 69.3877 25.2809 69.0301 24.4966L68.2172 22.6666C67.9245 21.9803 67.5994 21.6535 67.0466 21.6535C66.4614 21.6208 65.9736 22.0783 65.9411 22.6666C65.9411 22.6992 65.9411 22.6992 65.9411 22.7319C65.9736 23.0914 66.1037 23.4509 66.2663 23.7777L68.0221 27.7319C68.5098 28.6143 69.0301 29.1698 69.8755 29.1698ZM77.3215 29.2352C77.9393 29.2025 78.492 29.0391 79.0123 28.745L79.435 28.5162C79.6301 28.9084 80.0202 29.1698 80.4429 29.1698C81.0607 29.1698 81.5485 28.6796 81.5485 28.0587V22.7646C81.5485 22.1437 81.0607 21.6535 80.4429 21.6535C80.0202 21.6535 79.5975 21.9149 79.435 22.3071C78.8497 21.8169 78.1344 21.5881 77.3865 21.5881C75.5656 21.5881 74.1025 23.1241 74.1025 25.4443C74.1025 27.7646 75.4356 29.2679 77.3215 29.2352ZM77.9068 27.209C76.8012 27.209 76.3135 26.6535 76.3135 25.4116C76.3135 24.1698 76.8337 23.5816 77.9068 23.5816C78.362 23.5816 78.7847 23.6796 79.2074 23.843C79.3049 23.8757 79.3374 23.9737 79.3374 24.1045V26.6535C79.3374 26.7842 79.3049 26.8822 79.2074 26.9149C78.8172 27.111 78.362 27.209 77.9068 27.209ZM84.3448 29.1698C84.9626 29.1698 85.4503 28.6796 85.4503 28.0587V24.1045C85.4503 23.9737 85.4503 23.9084 85.5804 23.843C85.9706 23.7123 86.3933 23.6469 86.7834 23.6469H86.816C87.3037 23.6469 87.6288 23.7123 87.8239 23.9084C87.9865 24.1045 88.084 24.3659 88.0515 24.6273V28.0587C88.019 28.6796 88.4742 29.2025 89.0595 29.2679C89.6773 29.3005 90.1975 28.843 90.2301 28.2548C90.2301 28.1894 90.2301 28.1567 90.2301 28.0914V24.562C90.3601 23.0587 89.2871 21.7188 87.7914 21.5881C87.6614 21.5881 87.5313 21.5554 87.4012 21.5881C86.7509 21.5881 86.1006 21.7842 85.5804 22.1437L85.3202 22.2744C85.0601 21.7188 84.3773 21.4901 83.8571 21.7515C83.4669 21.9476 83.2393 22.3398 83.2393 22.7319V28.026C83.2393 28.6796 83.727 29.1698 84.3448 29.1698ZM95.0098 29.2352C95.7252 29.2352 96.4405 29.0391 97.0908 28.6796C97.3834 28.5162 97.5785 28.1894 97.5785 27.8626C97.5785 27.4051 97.2534 27.013 96.7982 27.013H96.7656C96.3104 27.013 95.8227 27.2744 95.335 27.2744C94.9773 27.3071 94.6521 27.0456 94.6196 26.6862C94.6196 26.6208 94.6196 26.5881 94.6196 26.5228V23.3855H96.2454C96.7331 23.3855 97.0908 22.9934 97.1233 22.5358C97.1233 22.0456 96.7331 21.6862 96.2454 21.6535H94.6196V20.2483C94.6196 19.6273 94.1319 19.1371 93.5141 19.1045C92.8963 19.1045 92.4086 19.6273 92.4086 20.2156V21.6208H91.8233C91.3356 21.6208 90.9779 22.013 90.9454 22.5032C90.9454 22.9607 91.3356 23.3528 91.8233 23.3528H92.4086V26.4247C92.4086 27.3724 92.6362 28.0914 93.0914 28.5489C93.5466 29.0064 94.1319 29.2352 95.0098 29.2352ZM101.188 29.2352C101.806 29.2025 102.358 29.0391 102.879 28.745L103.301 28.5162C103.496 28.9084 103.887 29.1698 104.342 29.1698C104.96 29.1698 105.447 28.6796 105.447 28.0587V22.7646C105.447 22.1437 104.96 21.6535 104.342 21.6535C103.919 21.6535 103.529 21.9149 103.334 22.3071C102.748 21.8169 102.001 21.5554 101.253 21.5554C99.4319 21.5554 97.9687 23.0914 97.9687 25.4116C97.9687 27.7319 99.3018 29.2679 101.188 29.2352ZM101.773 27.209C100.667 27.209 100.18 26.6535 100.18 25.4116C100.18 24.1698 100.7 23.5816 101.773 23.5816C102.228 23.5816 102.651 23.6796 103.074 23.843C103.171 23.8757 103.204 23.9737 103.204 24.1045V26.6535C103.204 26.7842 103.171 26.8822 103.074 26.9149C102.651 27.111 102.228 27.209 101.773 27.209Z" fill="#5B5957" />
                            <path d="M105.415 31.8495H52.7724V32.0129H105.415V31.8495Z" fill="#5B5957" />
                            <path d="M65.2258 34.7907H66.1362L67.3068 38.2548L68.4773 34.7907H69.3877L70.2331 39.7581H69.3227L68.8025 36.6208L67.762 39.7581H66.9166L65.8761 36.6208L65.3233 39.7581H64.3804L65.2258 34.7907Z" fill="#5B5957" />
                            <path d="M71.3387 34.7907H72.2816V37.9933C72.2816 38.1894 72.2816 38.3855 72.3466 38.5816C72.3791 38.6796 72.4767 38.8103 72.5742 38.843C72.7043 38.9084 72.8344 38.9411 72.9644 38.9411C73.127 38.9411 73.2571 38.9084 73.3871 38.8103C73.4847 38.745 73.5822 38.6469 73.6472 38.5162C73.7123 38.2875 73.7123 38.0587 73.7123 37.8299V34.7254H74.6552V37.6992C74.6552 38.0587 74.6552 38.3855 74.5577 38.745C74.4276 39.1698 74.1025 39.5293 73.6798 39.6927C73.4522 39.7907 73.2245 39.8234 72.9644 39.8234C72.6393 39.8234 72.3141 39.7581 72.0215 39.562C71.7614 39.3986 71.5663 39.2025 71.4362 38.9411C71.3061 38.5489 71.2411 38.0914 71.2736 37.6665L71.3387 34.7907Z" fill="#5B5957" />
                            <path d="M76.1834 34.7907H77.1264V38.843H78.492V39.7581H76.1834V34.7907Z" fill="#5B5957" />
                            <path d="M79.5975 34.7907H80.5405V37.9933C80.5405 38.1894 80.5405 38.3855 80.6055 38.5816C80.638 38.6796 80.7356 38.7777 80.8331 38.843C80.9632 38.9084 81.0933 38.9411 81.2233 38.9411C81.3859 38.9411 81.516 38.9084 81.646 38.8103C81.7761 38.745 81.8411 38.6469 81.9061 38.5162C81.9712 38.2875 81.9712 38.0587 81.9712 37.8299V34.7254H82.9141V37.6992C82.9141 38.0587 82.9141 38.3855 82.8166 38.745C82.7515 38.9411 82.654 39.1371 82.4914 39.3005C82.3288 39.4639 82.1663 39.5947 81.9387 39.6927C81.711 39.7907 81.4834 39.8234 81.2233 39.8234C80.8982 39.8234 80.573 39.7581 80.2804 39.562C80.0202 39.4313 79.8252 39.2025 79.6951 38.9411C79.565 38.5489 79.5 38.0914 79.5325 37.6665L79.5975 34.7907Z" fill="#5B5957" />
                            <path d="M84.4423 34.7907H85.3528L87.4663 38.0587V34.7907H88.4092V39.7581H87.4988L85.3853 36.4901V39.7581H84.4423V34.7907Z" fill="#5B5957" />
                            <path d="M89.9374 34.7907H91.0429C91.5957 34.7581 92.1485 34.8561 92.6362 35.0522C92.9939 35.2483 93.319 35.5424 93.5141 35.9345C93.9043 36.6862 93.9693 37.6012 93.6767 38.4182C93.5466 38.7123 93.384 39.0064 93.1564 39.2025C92.9613 39.3986 92.7012 39.562 92.4411 39.6273C91.9859 39.7254 91.5307 39.7581 91.108 39.7581H89.9699L89.9374 34.7907ZM90.9129 35.7058V38.843H91.3681C91.6932 38.8757 92.0184 38.8103 92.311 38.6796C92.5061 38.5816 92.6687 38.3855 92.7988 38.1894C92.9288 37.928 92.9939 37.6339 92.9939 37.3071C93.0264 36.8496 92.8638 36.392 92.5387 36.0652C92.181 35.7711 91.7258 35.6404 91.2706 35.6731H90.9129V35.7058Z" fill="#5B5957" />
                        </svg>