<svg width="77" height="102" viewBox="0 0 77 102" fill="none" xmlns="http://www.w3.org/2000/svg">
<g clip-path="url(#clip0_125_1785)">
<rect width="76.029" height="101.372" rx="14" fill="#D9EDF5"/>
<g clip-path="url(#clip1_125_1785)">
<path d="M53.9708 42.2411C53.9708 42.1224 53.9109 41.9443 53.9109 41.7662V34.9402C53.9109 34.2279 54.3899 33.6343 55.0485 33.4562C55.0485 33.2782 55.0485 33.1595 55.0485 32.9814C55.2281 30.9039 56.7849 29.1232 58.8206 28.589C59.2398 28.4703 59.6589 28.4109 60.1379 28.4109C56.1263 19.448 47.0852 13.2155 36.6071 13.2155C22.3569 13.2155 10.861 24.6714 10.861 38.739C10.861 52.866 22.4168 64.2625 36.6071 64.2625C49.0012 64.2625 59.2996 55.5964 61.8144 44.0812L56.3658 44.0812C55.1683 44.1405 54.2103 43.3689 53.9708 42.2411Z" fill="#1D6799"/>
<path d="M56.2461 34.584C56.2461 34.4652 56.2461 34.4059 56.2461 34.2872C56.2461 33.8717 56.2461 33.4562 56.2461 33.0407C56.4257 31.438 57.5633 30.1322 59.1201 29.7167C61.3953 29.1231 63.6706 30.607 64.0298 32.8626C64.0897 33.1594 64.0897 33.4562 64.0897 33.6936C64.0897 33.9904 64.0897 34.2278 64.0897 34.5246C64.1495 34.5246 64.1495 34.5246 64.2094 34.5246C64.389 34.5246 64.6285 34.5246 64.8082 34.5246C65.1075 34.5246 65.1674 34.6433 65.1674 34.9401C65.1674 35.6524 65.1674 36.3647 65.1674 37.077C65.1674 38.6202 65.1674 40.1635 65.1674 41.7068C65.1674 42.0036 65.0477 42.3004 64.868 42.5378C64.6285 42.7752 64.3292 42.8939 64.0298 42.8939C62.7126 42.8939 61.3953 42.8939 60.0781 42.8939C58.8207 42.8939 57.5633 42.8939 56.306 42.8939C55.7072 42.8939 55.2881 42.5378 55.1683 41.9442C55.1683 41.8849 55.1683 41.7662 55.1683 41.7068C55.1683 39.4512 55.1683 37.1363 55.1683 34.8807C55.1683 34.6433 55.2881 34.5246 55.5276 34.5246C55.7072 34.584 56.0066 34.584 56.2461 34.584ZM62.3533 34.584C62.3533 34.5246 62.3533 34.4059 62.3533 34.3465C62.3533 33.9904 62.3533 33.5749 62.3533 33.2188C62.2336 32.2097 61.3953 31.438 60.3774 31.3193C59.0602 31.2006 57.9824 32.2097 57.9824 33.5155C57.9824 33.8123 57.9824 34.1685 57.9824 34.4652C57.9824 34.5246 57.9824 34.5246 57.9824 34.584C59.4194 34.584 60.9163 34.584 62.3533 34.584ZM60.1978 40.6977C60.3774 40.6977 60.5571 40.6977 60.7367 40.6977C60.9163 40.6977 61.0361 40.579 60.9762 40.401C60.9163 39.9261 60.8564 39.4512 60.7966 38.9764C60.7966 38.917 60.7966 38.8577 60.8564 38.7983C61.3354 38.3828 61.3354 37.6705 60.9163 37.255C60.4972 36.7802 59.7787 36.7802 59.3596 37.255C58.9404 37.7299 59.0003 38.4422 59.4194 38.7983C59.4793 38.8577 59.4793 38.8577 59.4793 38.917C59.4194 39.3919 59.3596 39.8667 59.2997 40.401C59.2997 40.579 59.3596 40.6977 59.5991 40.6977C59.8386 40.6977 60.0182 40.6977 60.1978 40.6977Z" fill="#F7BC37"/>
<path d="M31.7572 11.7909C32.5955 11.7909 33.2541 12.5032 33.1942 13.3342C33.1343 14.6401 33.2541 22.5939 33.1343 26.8083C33.1343 27.2238 33.3738 27.4018 33.6133 27.6393C37.9842 32.0317 49.7795 44.6747 54.2701 48.6516C54.7491 49.0671 54.9886 49.7201 55.288 50.3136C55.5874 50.8479 55.8269 51.4414 56.1861 51.8569C56.7849 52.4505 56.8447 53.3408 56.3657 53.9344V53.9938C56.3059 54.1125 56.1861 54.2312 56.246 54.3499C56.3657 55.359 56.4855 56.3681 56.6052 57.3771L55.4077 57.7926C55.1682 58.5049 55.5275 59.0391 55.9466 59.5733C56.246 59.8701 56.3059 60.2263 56.246 60.6418V60.7011C56.1262 61.176 55.5874 61.4728 55.1084 61.176C54.9287 61.0573 54.7491 60.9979 54.5695 60.9979C52.2344 61.1166 49.8993 61.2947 47.5043 61.4134C46.8456 61.4728 46.187 61.4728 45.4685 61.4728C45.3488 61.4728 45.1093 61.4134 45.0494 61.2947C44.3309 60.2856 43.5525 59.2765 43.2532 58.03C43.1933 57.7926 43.0137 57.6146 42.834 57.4365C42.5945 57.1991 42.355 57.021 42.1155 56.7836C41.5767 56.19 40.9779 55.8932 40.1397 56.0119C39.9002 56.0713 39.7804 55.9526 39.7206 55.6558C39.6607 55.2996 39.4811 54.9435 39.4212 54.5873C39.3613 54.2312 39.1817 54.1718 38.8823 54.1718C38.2237 54.1718 37.5651 54.1718 36.9064 54.1125C36.7268 54.1125 36.5472 53.9344 36.4274 53.8157C35.8886 53.2221 35.4096 52.5692 34.8707 51.9756C34.8108 51.8569 34.5713 51.8569 34.4516 51.8569C34.3318 51.8569 34.2121 51.9163 34.0923 51.9756C33.4337 52.3318 32.7152 52.5692 31.9967 52.1537C31.877 52.0944 31.6973 52.0943 31.5177 52.0943C30.8591 52.1537 30.4998 51.7976 30.44 51.1446C30.44 50.6104 30.44 50.1356 30.3801 49.6607C30.2005 48.5329 29.5418 47.5832 28.7635 46.8116C28.1647 46.1586 27.7456 45.5057 27.6857 44.6747C27.6857 44.4373 27.5061 44.1999 27.3265 44.0218C26.9672 43.6656 26.6679 43.3095 26.3086 42.9534C25.65 42.3004 25.65 41.232 26.3086 40.5791C26.3086 40.5791 26.3086 40.5791 26.3086 40.5197C26.3086 40.5197 23.1951 35.7712 23.0754 35.1182C23.0155 34.4653 22.6563 34.1685 21.9378 33.8717C20.9199 33.4562 21.2193 32.5065 21.2791 31.9723C21.2791 31.7942 21.2193 31.5568 21.0995 31.4975C20.3211 30.7852 19.4829 30.1322 18.7644 29.3606C18.4052 28.9451 18.2255 28.3515 18.0459 27.758C17.986 27.5799 18.2255 27.2238 18.4052 27.0457C18.7644 26.6302 18.7045 26.2147 18.465 25.6805C17.9262 23.9591 17.3873 23.0688 17.028 22.3565C16.6089 21.5848 16.4293 20.6945 16.6089 19.8041C16.9083 18.0828 17.4472 15.6491 17.2077 15.0556C17.028 14.5807 17.0879 14.3433 17.2675 13.4529C17.4472 12.3251 17.5669 11.7909 18.8243 11.7909C20.0816 11.7909 22.1174 11.7909 24.9315 11.8503C27.6259 11.7909 30.9788 11.7316 31.7572 11.7909Z" fill="#29ABE2"/>
<path d="M20.6206 40.2229L23.1952 40.9945C23.0156 41.7068 22.7761 42.3004 22.357 42.7752C21.9378 43.2501 21.5187 43.6062 20.9798 43.8437C20.441 44.0811 19.7225 44.1998 18.8842 44.1998C17.8663 44.1998 17.0281 44.0811 16.3695 43.7843C15.7109 43.4875 15.172 42.9533 14.693 42.241C14.214 41.4694 13.9745 40.5197 13.9745 39.3919C13.9745 37.8486 14.3936 36.6615 15.2319 35.8305C16.0701 34.9995 17.2676 34.584 18.7645 34.584C19.962 34.584 20.92 34.8214 21.5786 35.2962C22.2372 35.7711 22.7761 36.4834 23.0754 37.4924L20.5008 38.086C20.3811 37.7892 20.3212 37.6112 20.2015 37.4331C20.0218 37.1957 19.8422 37.0176 19.6027 36.8989C19.3632 36.7802 19.1237 36.7208 18.8243 36.7208C18.1657 36.7208 17.6268 36.9582 17.3275 37.4924C17.088 37.9079 16.9084 38.5015 16.9084 39.3325C16.9084 40.4009 17.088 41.1132 17.3873 41.4694C17.6867 41.8255 18.1657 42.0629 18.7046 42.0629C19.2435 42.0629 19.6626 41.8849 19.962 41.5881C20.3212 41.2319 20.5008 40.8164 20.6206 40.2229Z" fill="white"/>
<path d="M30.6197 40.2229L33.1943 40.9945C33.0147 41.7068 32.7752 42.3004 32.3561 42.7752C31.937 43.2501 31.5179 43.6062 30.979 43.8437C30.4401 44.0811 29.7216 44.1998 28.8834 44.1998C27.8655 44.1998 27.0272 44.0811 26.3686 43.7843C25.71 43.4875 25.1711 42.9533 24.6921 42.241C24.2131 41.4694 23.9736 40.5197 23.9736 39.3919C23.9736 37.8486 24.3928 36.6615 25.231 35.8305C26.0693 34.9995 27.2667 34.584 28.7636 34.584C29.9611 34.584 30.9191 34.8214 31.5777 35.2963C32.2363 35.7711 32.7752 36.4834 33.0746 37.4925L30.5 38.086C30.3802 37.7892 30.3204 37.6112 30.2006 37.4331C30.021 37.1957 29.8414 37.0176 29.6019 36.8989C29.3624 36.7802 29.1229 36.7208 28.8235 36.7208C28.1649 36.7208 27.626 36.9583 27.3266 37.4925C27.0871 37.908 26.9075 38.5015 26.9075 39.3325C26.9075 40.401 27.0871 41.1132 27.3865 41.4694C27.6859 41.8255 28.1649 42.063 28.7037 42.063C29.2426 42.063 29.6617 41.8849 29.9611 41.5881C30.3204 41.232 30.5 40.8165 30.6197 40.2229Z" fill="white"/>
<path d="M34.3319 34.6434H39.1818C40.2595 34.6434 41.0379 34.8808 41.5768 35.415C42.1156 35.8899 42.3551 36.6021 42.3551 37.5519C42.3551 38.5016 42.0558 39.2139 41.5169 39.7481C40.9181 40.2823 40.0799 40.5197 38.8824 40.5197H37.2658V44.0218H34.3319V34.6434ZM37.2658 38.6796H37.9843C38.5231 38.6796 38.9423 38.5609 39.1818 38.3829C39.4213 38.2048 39.541 37.9674 39.541 37.6112C39.541 37.3144 39.4213 37.077 39.2416 36.8396C39.062 36.6615 38.6429 36.5428 38.104 36.5428H37.2658V38.6796Z" fill="white"/>
<path d="M48.3425 42.4784H45.0494L44.5704 44.0217H41.5767L45.1093 34.6433H48.2826L51.8152 44.0217L48.7616 44.0217L48.3425 42.4784ZM47.7438 40.4603L46.7259 37.0769L45.708 40.4603H47.7438Z" fill="white"/>
</g>
<path d="M15.2675 84.0837C15.2675 83.3948 15.3974 82.7534 15.6573 82.1594C15.9171 81.5613 16.2925 81.0436 16.7833 80.6064C17.2783 80.1651 17.8806 79.8186 18.59 79.567C19.3036 79.3153 20.11 79.1895 21.0092 79.1895C21.7971 79.1895 22.5189 79.27 23.1748 79.4308C23.8348 79.5876 24.4473 79.8289 25.0124 80.1547L24.1091 81.6397C23.9399 81.5283 23.744 81.4293 23.5213 81.3427C23.3026 81.2561 23.0675 81.1839 22.8159 81.1261C22.5684 81.0643 22.3106 81.0168 22.0425 80.9838C21.7785 80.9508 21.5166 80.9343 21.2567 80.9343C20.6298 80.9343 20.0708 81.0127 19.58 81.1695C19.0891 81.3221 18.6746 81.5386 18.3363 81.8191C18.0022 82.0955 17.7465 82.4275 17.5691 82.8153C17.3959 83.1989 17.3093 83.6217 17.3093 84.0837C17.3093 84.5621 17.4 85.0014 17.5815 85.4015C17.763 85.8016 18.0249 86.1481 18.3673 86.441C18.7138 86.7297 19.1345 86.9566 19.6295 87.1216C20.1286 87.2825 20.6916 87.3629 21.3186 87.3629C21.6032 87.3629 21.8858 87.3423 22.1663 87.301C22.4467 87.2598 22.7169 87.2041 22.9768 87.134C23.2408 87.0597 23.4945 86.9731 23.7378 86.8741C23.9812 86.771 24.208 86.6596 24.4184 86.54L25.3218 88.0249C24.7938 88.3632 24.1833 88.6292 23.4903 88.8231C22.7974 89.0128 22.0611 89.1077 21.2815 89.1077C20.2874 89.1077 19.415 88.9798 18.6643 88.7241C17.9136 88.4642 17.2866 88.1095 16.7833 87.6599C16.2801 87.2062 15.9006 86.674 15.6449 86.0636C15.3933 85.449 15.2675 84.789 15.2675 84.0837ZM26.8995 84.0837C26.8995 83.3948 27.0294 82.7534 27.2893 82.1594C27.5492 81.5613 27.9245 81.0436 28.4154 80.6064C28.9104 80.1651 29.5126 79.8186 30.2221 79.567C30.9357 79.3153 31.7421 79.1895 32.6413 79.1895C33.4291 79.1895 34.151 79.27 34.8068 79.4308C35.4668 79.5876 36.0793 79.8289 36.6444 80.1547L35.7411 81.6397C35.572 81.5283 35.376 81.4293 35.1533 81.3427C34.9347 81.2561 34.6996 81.1839 34.448 81.1261C34.2005 81.0643 33.9427 81.0168 33.6745 80.9838C33.4106 80.9508 33.1486 80.9343 32.8888 80.9343C32.2618 80.9343 31.7029 81.0127 31.212 81.1695C30.7212 81.3221 30.3066 81.5386 29.9684 81.8191C29.6343 82.0955 29.3785 82.4275 29.2012 82.8153C29.0279 83.1989 28.9413 83.6217 28.9413 84.0837C28.9413 84.5621 29.032 85.0014 29.2135 85.4015C29.395 85.8016 29.657 86.1481 29.9993 86.441C30.3458 86.7297 30.7665 86.9566 31.2615 87.1216C31.7606 87.2825 32.3237 87.3629 32.9506 87.3629C33.2353 87.3629 33.5178 87.3423 33.7983 87.301C34.0788 87.2598 34.349 87.2041 34.6088 87.134C34.8728 87.0597 35.1265 86.9731 35.3699 86.8741C35.6132 86.771 35.8401 86.6596 36.0505 86.54L36.9538 88.0249C36.4258 88.3632 35.8153 88.6292 35.1224 88.8231C34.4294 89.0128 33.6931 89.1077 32.9135 89.1077C31.9194 89.1077 31.047 88.9798 30.2963 88.7241C29.5456 88.4642 28.9186 88.1095 28.4154 87.6599C27.9122 87.2062 27.5327 86.674 27.2769 86.0636C27.0253 85.449 26.8995 84.789 26.8995 84.0837ZM39.1193 79.3071H44.2176C44.9601 79.3071 45.6036 79.3875 46.148 79.5484C46.6925 79.7093 47.1442 79.9423 47.5031 80.2476C47.8619 80.5487 48.128 80.9178 48.3012 81.3551C48.4786 81.7923 48.5673 82.2852 48.5673 82.8338C48.5673 83.3494 48.4806 83.8258 48.3074 84.2631C48.1342 84.7003 47.8681 85.0798 47.5092 85.4015C47.1545 85.7191 46.7049 85.9687 46.1604 86.1502C45.6159 86.3276 44.9725 86.4162 44.23 86.4162L41.0807 86.4101V88.9778H39.1193V79.3071ZM44.2671 84.7148C44.6384 84.7148 44.9622 84.6714 45.2385 84.5848C45.519 84.4941 45.7521 84.3683 45.9377 84.2074C46.1274 84.0424 46.2677 83.8444 46.3584 83.6134C46.4533 83.3783 46.5007 83.1184 46.5007 82.8338C46.5007 82.2605 46.313 81.815 45.9377 81.4974C45.5664 81.1756 45.0096 81.0148 44.2671 81.0148H41.0807V84.7148H44.2671ZM54.012 79.3071H56.091L60.7685 88.9778H58.7082L57.9348 87.3505H52.2858L51.5371 88.9778H49.4706L54.012 79.3071ZM57.1614 85.7356L55.0701 81.3427L53.0345 85.7356H57.1614Z" fill="#1D6799"/>
</g>
<defs>
<clipPath id="clip0_125_1785">
<rect width="76.029" height="101.372" rx="14" fill="white"/>
</clipPath>
<clipPath id="clip1_125_1785">
<rect width="54.3064" height="52.4962" fill="white" transform="translate(10.8613 11.7664)"/>
</clipPath>
</defs>
</svg>
