<svg width="77" height="102" viewBox="0 0 77 102" fill="none" xmlns="http://www.w3.org/2000/svg">
<g clip-path="url(#clip0_125_1806)">
<rect x="0.0289307" width="76.029" height="101.372" rx="14" fill="#CFCEF2"/>
<path d="M15.222 84.0528C15.222 83.3722 15.3499 82.737 15.6056 82.1471C15.8614 81.5532 16.2347 81.0376 16.7255 80.6003C17.2164 80.1631 17.8186 79.8187 18.5322 79.5671C19.2499 79.3154 20.0708 79.1896 20.9947 79.1896C21.3289 79.1896 21.663 79.2082 21.9971 79.2453C22.3353 79.2783 22.6674 79.3319 22.9932 79.4062C23.3232 79.4804 23.6429 79.5753 23.9522 79.6908C24.2657 79.8022 24.5627 79.9362 24.8432 80.093L23.9399 81.5779C23.7708 81.4789 23.5789 81.3902 23.3645 81.3119C23.15 81.2294 22.919 81.1613 22.6715 81.1077C22.4281 81.0499 22.1744 81.0066 21.9105 80.9778C21.6506 80.9489 21.3887 80.9344 21.1247 80.9344C20.5142 80.9344 19.9697 81.0128 19.4912 81.1696C19.0128 81.3222 18.6085 81.5387 18.2785 81.8192C17.9485 82.0956 17.6969 82.4276 17.5237 82.8154C17.3504 83.2031 17.2638 83.628 17.2638 84.0899C17.2638 84.5684 17.3546 85.0077 17.5361 85.4078C17.7176 85.8079 17.9754 86.1524 18.3095 86.4411C18.6436 86.7298 19.0478 86.9567 19.5222 87.1217C19.9965 87.2826 20.5266 87.363 21.1123 87.363C21.5784 87.363 22.0053 87.3114 22.3931 87.2083C22.7808 87.1011 23.119 86.9505 23.4078 86.7567C23.6965 86.5628 23.9316 86.3297 24.1131 86.0575C24.2946 85.7811 24.4142 85.4718 24.472 85.1294H21.0937V83.5145H26.2353V83.5207L26.2415 83.5145C26.3446 84.0095 26.3756 84.4921 26.3343 84.9623C26.2972 85.4285 26.19 85.8698 26.0126 86.2864C25.8394 86.6989 25.6001 87.0784 25.2949 87.4249C24.9896 87.7714 24.6246 88.0704 24.1997 88.322C23.7749 88.5695 23.2923 88.7634 22.7519 88.9036C22.2116 89.0397 21.6197 89.1078 20.9762 89.1078C20.077 89.1078 19.2706 88.9758 18.557 88.7118C17.8475 88.4478 17.2453 88.0869 16.7503 87.6291C16.2553 87.1712 15.8758 86.635 15.6118 86.0204C15.352 85.4058 15.222 84.7499 15.222 84.0528ZM28.5556 79.3072H32.1009C33.1362 79.3072 34.0354 79.4186 34.7985 79.6413C35.5616 79.8641 36.1927 80.1837 36.6918 80.6003C37.195 81.0128 37.5683 81.516 37.8117 82.11C38.0592 82.6999 38.1829 83.364 38.1829 84.1023C38.1829 84.8035 38.0612 85.4532 37.8179 86.0513C37.5745 86.6453 37.2033 87.1609 36.7042 87.5981C36.2051 88.0312 35.574 88.3715 34.8109 88.619C34.0478 88.8624 33.1486 88.9841 32.1132 88.9841L28.5556 88.9779V79.3072ZM32.5835 87.2826C33.1692 87.2826 33.6827 87.2083 34.1241 87.0598C34.5654 86.9072 34.9326 86.6927 35.2254 86.4164C35.5224 86.14 35.7451 85.8059 35.8936 85.414C36.0421 85.0222 36.1164 84.5849 36.1164 84.1023C36.1164 83.628 36.0421 83.201 35.8936 82.8216C35.7451 82.4379 35.5224 82.1141 35.2254 81.8502C34.9326 81.582 34.5654 81.3758 34.1241 81.2314C33.6827 81.0871 33.1692 81.0149 32.5835 81.0149H30.5169V87.2826H32.5835ZM40.1505 79.3072H45.2488C45.9912 79.3072 46.6347 79.3876 47.1792 79.5485C47.7237 79.7094 48.1753 79.9424 48.5342 80.2477C48.8931 80.5488 49.1591 80.9179 49.3324 81.3552C49.5097 81.7924 49.5984 82.2853 49.5984 82.8339C49.5984 83.3495 49.5118 83.826 49.3385 84.2632C49.1653 84.7004 48.8992 85.0799 48.5404 85.4016C48.1856 85.7193 47.736 85.9688 47.1916 86.1503C46.6471 86.3277 46.0036 86.4164 45.2611 86.4164L42.1118 86.4102V88.9779H40.1505V79.3072ZM45.2983 84.7149C45.6695 84.7149 45.9933 84.6715 46.2697 84.5849C46.5502 84.4942 46.7832 84.3684 46.9688 84.2075C47.1586 84.0425 47.2988 83.8445 47.3896 83.6135C47.4844 83.3784 47.5319 83.1185 47.5319 82.8339C47.5319 82.2606 47.3442 81.8151 46.9688 81.4975C46.5976 81.1757 46.0407 81.0149 45.2983 81.0149H42.1118V84.7149H45.2983ZM51.7454 79.3072H56.6642C57.4067 79.3072 58.0502 79.3856 58.5947 79.5423C59.1391 79.6949 59.5908 79.9177 59.9497 80.2105C60.3085 80.5034 60.5746 80.8602 60.7478 81.2809C60.9252 81.7017 61.0139 82.1781 61.0139 82.7102C61.0139 83.069 60.9706 83.4114 60.884 83.7373C60.7973 84.059 60.6633 84.356 60.4818 84.6282C60.3044 84.9005 60.0796 85.1438 59.8074 85.3583C59.5351 85.5687 59.2155 85.744 58.8483 85.8842L60.952 88.9779H58.5514L56.7323 86.2307H56.6766L53.7067 86.2245V88.9779H51.7454V79.3072ZM56.7137 84.5292C57.085 84.5292 57.4088 84.4859 57.6851 84.3993C57.9656 84.3127 58.1987 84.191 58.3843 84.0343C58.574 83.8775 58.7143 83.6878 58.805 83.465C58.8999 83.2382 58.9473 82.9866 58.9473 82.7102C58.9473 82.1698 58.7617 81.7532 58.3905 81.4604C58.0193 81.1634 57.4603 81.0149 56.7137 81.0149H53.7067V84.5292H56.7137Z" fill="#0D00A0"/>
<g clip-path="url(#clip1_125_1806)">
<path d="M37.5908 64.2625L36.969 63.9993C33.6526 62.5776 17.226 54.8901 17.226 43.4115V19.8751L37.5908 11.7664L57.9557 19.8751V43.4115C57.9557 54.8901 41.4773 62.5776 38.2127 63.9993L37.5908 64.2625ZM20.3869 22.0339V43.4115C20.3869 47.3079 22.9779 51.257 28.0561 55.1534C31.7871 57.9967 35.829 59.9976 37.6427 60.7874C39.4563 59.9449 43.4982 57.9967 47.2292 55.1534C52.3075 51.257 54.8984 47.3079 54.8984 43.4115V22.0339L37.6427 15.1889L20.3869 22.0339Z" fill="white"/>
<path d="M37.5907 13.4512L37.5907 62.5249C40.5962 61.2085 56.401 53.8896 56.401 43.4114C56.401 31.7748 56.401 20.9281 56.401 20.9281L37.5907 13.4512Z" fill="#1611D3"/>
<path d="M37.5907 13.4512V62.5248C34.5852 61.2085 18.7804 53.8896 18.7804 43.4114C18.7804 31.7748 18.7804 20.9281 18.7804 20.9281L37.5907 13.4512Z" fill="#0D00A0"/>
<path d="M30.3881 40.884C30.2327 40.9893 30.0254 41.0947 29.8181 41.1473C29.6109 41.2526 29.4036 41.3053 29.1963 41.3579C28.989 41.4106 28.7299 41.4632 28.419 41.5159C28.1599 41.5685 27.7972 41.5685 27.4863 41.5685C27.0717 41.5685 26.7608 41.5159 26.3981 41.4106C26.0872 41.3053 25.7763 41.1473 25.569 40.9893C25.3617 40.8314 25.1026 40.5681 24.9471 40.3048C24.7399 40.0416 24.6362 39.7783 24.4808 39.4624C24.3253 39.1465 24.2735 38.8305 24.2217 38.5146C24.1699 38.1987 24.118 37.8301 24.118 37.5142C24.118 37.1456 24.1699 36.777 24.2217 36.4611C24.2735 36.0925 24.3771 35.7766 24.5326 35.4607C24.6881 35.1447 24.8435 34.8815 25.0508 34.6182C25.2581 34.3549 25.4653 34.1443 25.7244 33.9337C25.9835 33.7231 26.2944 33.6178 26.6054 33.5125C26.9163 33.4071 27.279 33.3545 27.6417 33.3545C27.849 33.3545 28.0045 33.3545 28.1599 33.3545C28.3154 33.3545 28.4708 33.4071 28.5745 33.4071C28.7299 33.4071 28.8336 33.4598 28.9372 33.5125C29.0409 33.5651 29.1963 33.6178 29.3 33.6704C29.4036 33.7231 29.559 33.8284 29.6627 33.9337C29.7663 34.039 29.9218 34.1443 30.0772 34.2496L29.3518 35.25C29.1963 35.0921 29.0409 34.9341 28.8854 34.8288C28.7299 34.7235 28.5745 34.6182 28.4708 34.5655C28.3154 34.5129 28.1599 34.4602 28.0045 34.4602C27.849 34.4602 27.6936 34.4076 27.4863 34.4076C27.1754 34.4076 26.8645 34.4602 26.6054 34.6182C26.3463 34.7762 26.139 34.9868 25.9835 35.25C25.8281 35.5133 25.6726 35.8292 25.569 36.1452C25.4653 36.4611 25.4135 36.8823 25.4135 37.3036C25.4135 37.7248 25.4653 38.146 25.5172 38.5146C25.569 38.8832 25.7244 39.2518 25.8799 39.515C26.0353 39.7783 26.2426 40.0416 26.5535 40.1995C26.8126 40.3575 27.1235 40.4628 27.5381 40.4628C27.6417 40.4628 27.7454 40.4628 27.849 40.4628C27.9527 40.4628 28.1081 40.4628 28.2118 40.4101C28.3154 40.4101 28.4708 40.3575 28.5745 40.3575C28.6781 40.3575 28.7818 40.3048 28.8854 40.3048V37.6195H30.2327V40.884H30.3881Z" fill="white"/>
<path d="M33.7045 33.4599C34.43 33.4599 35.0518 33.5652 35.5182 33.7758C36.0364 33.9864 36.3991 34.2497 36.7619 34.6183C37.0728 34.9868 37.2801 35.3554 37.4355 35.8293C37.591 36.3032 37.6428 36.7771 37.6428 37.3036C37.6428 37.6722 37.591 38.0408 37.5392 38.3567C37.4873 38.6726 37.3837 39.0412 37.2801 39.3571C37.1246 39.6731 36.9691 39.9363 36.7619 40.1996C36.5546 40.4629 36.2955 40.6735 35.9846 40.8314C35.6737 40.9894 35.3628 41.1474 34.9482 41.2527C34.5336 41.358 34.1191 41.4106 33.6009 41.4106H31.6836V33.5125H33.7045V33.4599ZM33.1345 34.513V40.3576H33.5491C33.9118 40.3576 34.2746 40.3049 34.6373 40.1469C34.9482 40.0416 35.2591 39.831 35.4664 39.5677C35.7255 39.3045 35.8809 38.9886 36.0364 38.62C36.1919 38.2514 36.2437 37.7775 36.2437 37.251C36.2437 36.8824 36.1919 36.5665 36.0882 36.1979C35.9846 35.882 35.8291 35.566 35.6218 35.3028C35.4146 35.0395 35.1555 34.8289 34.8446 34.6709C34.5336 34.5129 34.1191 34.4076 33.6527 34.4076H33.1345V34.513Z" fill="white"/>
<path d="M40.3893 38.3566V41.4105H39.042V33.5124H41.2702C41.7884 33.5124 42.203 33.5651 42.5657 33.6704C42.9284 33.7757 43.2393 33.9337 43.4466 34.1443C43.7057 34.3549 43.8612 34.6182 43.9648 34.8814C44.0684 35.1447 44.1203 35.4606 44.1203 35.8292C44.1203 35.9345 44.1203 36.0925 44.0684 36.3031C44.0166 36.4611 43.9648 36.6717 43.913 36.8296C43.8093 37.0403 43.7057 37.1982 43.5503 37.3562C43.3948 37.5141 43.2393 37.6721 42.9802 37.8301C42.7211 37.988 42.4621 38.0933 42.1511 38.1986C41.8402 38.3039 41.4775 38.3039 41.0111 38.3039H40.3893V38.3566ZM40.3893 37.3035H41.0629C41.322 37.3035 41.5293 37.2509 41.7366 37.1982C41.9439 37.1456 42.0993 37.0402 42.2548 36.9349C42.4102 36.8296 42.5139 36.6717 42.6175 36.4611C42.7211 36.3031 42.7211 36.0925 42.7211 35.8292C42.7211 35.6186 42.6693 35.4606 42.6175 35.3027C42.5657 35.1447 42.4621 34.9867 42.3584 34.8814C42.2548 34.7761 42.0475 34.6708 41.8402 34.5655C41.6329 34.5128 41.3739 34.4602 41.0629 34.4602H40.3893V37.3035Z" fill="white"/>
<path d="M46.6592 41.4106H45.3119V33.5125H47.5401C48.0583 33.5125 48.4729 33.5652 48.8356 33.6705C49.1983 33.7758 49.5092 33.9337 49.7165 34.0917C49.9756 34.3023 50.1311 34.5129 50.2347 34.7762C50.3383 35.0395 50.3902 35.3554 50.3902 35.6713C50.3902 35.8819 50.3383 36.1452 50.2865 36.3558C50.2347 36.5665 50.1311 36.8297 49.9756 37.0403C49.8201 37.251 49.6647 37.4616 49.4056 37.6195C49.1465 37.7775 48.8874 37.9355 48.5247 38.0408L50.9084 41.4106H49.3538L47.281 38.1987C47.1774 38.1987 47.1256 38.1987 47.0219 38.1987C46.9183 38.1987 46.8146 38.1987 46.6592 38.1461V41.4106ZM46.6592 37.093C46.7628 37.093 46.8665 37.093 46.9701 37.093C47.0737 37.093 47.1774 37.093 47.281 37.093C47.5401 37.093 47.7992 37.0403 48.0065 36.9877C48.2138 36.935 48.421 36.8297 48.5765 36.7244C48.732 36.6191 48.8356 36.4611 48.9392 36.3032C49.0429 36.1452 49.0429 35.9346 49.0429 35.724C49.0429 35.5134 48.991 35.3028 48.9392 35.1448C48.8874 34.9868 48.7838 34.8815 48.6801 34.7762C48.5765 34.6709 48.3692 34.6182 48.1619 34.5656C47.9547 34.5129 47.6437 34.5129 47.3328 34.5129H46.711V37.093H46.6592Z" fill="white"/>
<path d="M37.5907 20.4543L38.1607 22.1919H39.9226L38.5235 23.245L39.0416 24.9299L37.5907 23.8768L36.1916 24.9299L36.7098 23.245L35.3107 22.1919H37.0725L37.5907 20.4543Z" fill="#F7BC37"/>
<path d="M43.6539 22.1393L44.2239 23.8242H45.9857L44.5348 24.8773L45.1048 26.6149L43.6539 25.5618L42.2548 26.6149L42.773 24.8773L41.322 23.8242H43.1357L43.6539 22.1393Z" fill="#F7BC37"/>
<path d="M48.68 26.6149L49.1982 28.2998H50.96L49.5609 29.3529L50.0791 31.0905L48.68 30.0374L47.2291 31.0905L47.7991 29.3529L46.3481 28.2998H48.11L48.68 26.6149Z" fill="#F7BC37"/>
<path d="M37.5907 48.8349L38.1607 50.5725H39.9226L38.5235 51.6256L39.0416 53.3105L37.5907 52.2574L36.1916 53.3105L36.7098 51.6256L35.3107 50.5725H37.0725L37.5907 48.8349Z" fill="#F7BC37"/>
<path d="M43.6536 47.3606L44.2236 49.0455H45.9855L44.5346 50.0986L45.1046 51.8362L43.6536 50.7831L42.2545 51.8362L42.7727 50.0986L41.3218 49.0455H43.1354L43.6536 47.3606Z" fill="#F7BC37"/>
<path d="M48.6801 43.6749L49.1983 45.4124H50.9602L49.561 46.4655L50.0792 48.1505L48.6801 47.0974L47.2292 48.1505L47.7992 46.4655L46.3483 45.4124H48.1101L48.6801 43.6749Z" fill="#F7BC37"/>
<path d="M31.58 22.1393L31.01 23.8242H29.2482L30.6991 24.8773L30.1291 26.6149L31.58 25.5618L32.9791 26.6149L32.461 24.8773L33.8601 23.8242H32.0982L31.58 22.1393Z" fill="#F7BC37"/>
<path d="M26.5535 26.6149L26.0353 28.2998H24.2734L25.6726 29.3529L25.1544 31.0905L26.5535 30.0374L28.0044 31.0905L27.4344 29.3529L28.8853 28.2998H27.1235L26.5535 26.6149Z" fill="#F7BC37"/>
<path d="M31.5798 47.3606L31.0098 49.0455H29.2479L30.6989 50.0986L30.1288 51.8362L31.5798 50.7831L32.9789 51.8362L32.4607 50.0986L33.8598 49.0455H32.098L31.5798 47.3606Z" fill="#F7BC37"/>
<path d="M26.5532 43.6748L26.035 45.4124H24.2732L25.6723 46.4655L25.1541 48.1504L26.5532 47.0973L28.0042 48.1504L27.4342 46.4655L28.8851 45.4124H27.1232L26.5532 43.6748Z" fill="#F7BC37"/>
</g>
</g>
<defs>
<clipPath id="clip0_125_1806">
<rect x="0.0289307" width="76.029" height="101.372" rx="14" fill="white"/>
</clipPath>
<clipPath id="clip1_125_1806">
<rect width="40.7298" height="52.4962" fill="white" transform="translate(17.226 11.7664)"/>
</clipPath>
</defs>
</svg>
